<svg width="44" height="44" viewBox="0 0 44 44" fill="none" xmlns="http://www.w3.org/2000/svg">
<circle cx="22" cy="22" r="22" fill="white"/>
<circle cx="22" cy="22" r="21.5" stroke="#999999"/>
<path d="M26.7083 16.25C27.8589 16.25 28.7917 15.3173 28.7917 14.1667C28.7917 13.0161 27.8589 12.0834 26.7083 12.0834C25.5577 12.0834 24.625 13.0161 24.625 14.1667C24.625 15.3173 25.5577 16.25 26.7083 16.25Z" fill="#999999"/>
<path d="M25.4344 21.426C25.6735 21.7823 26.0165 22.0564 26.4168 22.2111C26.8171 22.3658 27.2553 22.3935 27.6719 22.2906L31.126 21.4271L30.6229 19.4062L27.1687 20.2698L25.7323 18.1166C25.4254 17.6568 24.9491 17.337 24.4073 17.2271L20.401 16.425C19.9529 16.335 19.4875 16.3951 19.0769 16.596C18.6663 16.7969 18.3332 17.1274 18.1292 17.5364L16.4021 20.9906L18.2656 21.9229L19.9927 18.4677L22.0417 18.8781L16.7437 27.7083H12.125V29.7916H16.7437C17.4708 29.7916 18.1552 29.4041 18.5302 28.7802L20.5281 25.451L25.9125 26.5281L27.8042 32.2041L29.7792 31.5448L27.8885 25.8698C27.7719 25.5213 27.5654 25.2098 27.29 24.9666C27.0146 24.7234 26.68 24.557 26.3198 24.4843L23.1542 23.8521L25 20.775L25.4344 21.426Z" fill="#999999"/>
</svg>
