<svg width="554" height="422" viewBox="0 0 554 422" fill="none" xmlns="http://www.w3.org/2000/svg">
<path d="M554 63C554 97.7939 522.884 126 484.5 126C446.116 126 415 97.7939 415 63C415 28.2061 446.116 0 484.5 0C522.884 0 554 28.2061 554 63Z" fill="#DCF0EF"/>
<path d="M539 359C539 393.794 507.884 422 469.5 422C431.116 422 400 393.794 400 359C400 324.206 431.116 296 469.5 296C507.884 296 539 324.206 539 359Z" fill="#DCF0EF"/>
<path d="M139 189C139 223.794 107.884 252 69.5 252C31.1162 252 0 223.794 0 189C0 154.206 31.1162 126 69.5 126C107.884 126 139 154.206 139 189Z" fill="#DCF0EF"/>
</svg>
