<svg width="58" height="54" viewBox="0 0 58 54" fill="none" xmlns="http://www.w3.org/2000/svg">
<path d="M29 3.375C14.9871 3.375 3.625 13.9535 3.625 27C3.625 40.0465 14.9871 50.625 29 50.625C43.0129 50.625 54.375 40.0465 54.375 27C54.375 13.9535 43.0129 3.375 29 3.375ZM38.9971 34.2615L37.3772 36.3182C37.3419 36.3629 37.2975 36.4008 37.2465 36.4296C37.1955 36.4583 37.1389 36.4774 37.08 36.4857C37.021 36.4941 36.9609 36.4915 36.903 36.4781C36.8451 36.4647 36.7907 36.4408 36.7428 36.4078L27.3744 30.048C27.316 30.009 27.2686 29.9575 27.2361 29.8979C27.2036 29.8382 27.1869 29.7722 27.1875 29.7053V15.1875C27.1875 14.9555 27.3914 14.7656 27.6406 14.7656H30.365C30.6143 14.7656 30.8182 14.9555 30.8182 15.1875V28.2393L38.8951 33.6762C39.099 33.808 39.1443 34.0717 38.9971 34.2615Z" fill="#67757F"/>
</svg>
