<svg width="44" height="44" viewBox="0 0 44 44" fill="none" xmlns="http://www.w3.org/2000/svg">
<circle cx="22" cy="22" r="22" fill="white"/>
<circle cx="22" cy="22" r="21.5" stroke="#999999"/>
<circle cx="22" cy="22" r="22" fill="white"/>
<circle cx="22" cy="22" r="21.5" stroke="#999999"/>
<path d="M31.5859 15.1475C31.5248 14.9594 31.4057 14.7955 31.2457 14.6792C31.0857 14.5629 30.8931 14.5002 30.6953 14.5H28.5625V11.2188C28.5625 10.7002 28.1436 10.2812 27.625 10.2812H16.375C15.8564 10.2812 15.4375 10.7002 15.4375 11.2188V14.5H13.3047C13.1068 14.4997 12.914 14.5623 12.7539 14.6786C12.5938 14.795 12.4749 14.9592 12.4141 15.1475L10.2812 21.707V32.7812C10.2812 33.2998 10.7002 33.7188 11.2188 33.7188H32.7812C33.2998 33.7188 33.7188 33.2998 33.7188 32.7812V21.707L31.5859 15.1475ZM26.3359 25.3984C26.3359 25.5273 26.2305 25.6328 26.1016 25.6328H22.9375V28.7969C22.9375 28.9258 22.832 29.0312 22.7031 29.0312H21.2969C21.168 29.0312 21.0625 28.9258 21.0625 28.7969V25.6328H17.8984C17.7695 25.6328 17.6641 25.5273 17.6641 25.3984V23.9922C17.6641 23.8633 17.7695 23.7578 17.8984 23.7578H21.0625V20.5938C21.0625 20.4648 21.168 20.3594 21.2969 20.3594H22.7031C22.832 20.3594 22.9375 20.4648 22.9375 20.5938V23.7578H26.1016C26.2305 23.7578 26.3359 23.8633 26.3359 23.9922V25.3984ZM26.4531 14.5H17.5469V12.3906H26.4531V14.5Z" fill="#999999"/>
</svg>
