<svg width="21" height="20" viewBox="0 0 21 20" fill="none" xmlns="http://www.w3.org/2000/svg">
<path d="M10.4 3.86667C12.3529 3.86667 13.6703 4.67778 14.4214 5.35556L17.3565 2.6C15.5538 0.988889 13.208 0 10.4 0C6.33249 0 2.8196 2.24444 1.10938 5.51111L4.47204 8.02222C5.3156 5.61111 7.64982 3.86667 10.4 3.86667Z" fill="#EA4335"/>
<path d="M20.3839 10.2222C20.3839 9.39996 20.3146 8.79996 20.1643 8.17773H10.3999V11.8888H16.1315C16.0159 12.8111 15.3919 14.2 14.0052 15.1333L17.287 17.5777C19.2515 15.8333 20.3839 13.2666 20.3839 10.2222Z" fill="#4285F4"/>
<path d="M4.48356 11.9779C4.264 11.3557 4.13689 10.689 4.13689 10.0001C4.13689 9.31123 4.264 8.64456 4.472 8.02234L1.10933 5.51123C0.404444 6.86679 0 8.38901 0 10.0001C0 11.6112 0.404444 13.1335 1.10933 14.489L4.48356 11.9779Z" fill="#FBBC05"/>
<path d="M10.4 20C13.208 20 15.5653 19.1111 17.2871 17.5778L14.0053 15.1333C13.1271 15.7222 11.9484 16.1333 10.4 16.1333C7.64974 16.1333 5.31552 14.3889 4.48352 11.9778L1.12085 14.4889C2.83107 17.7556 6.33241 20 10.4 20Z" fill="#34A853"/>
</svg>
