<svg width="20" height="20" viewBox="0 0 20 20" fill="none" xmlns="http://www.w3.org/2000/svg">
<path fill-rule="evenodd" clip-rule="evenodd" d="M10.0009 0C7.28508 0 6.94424 0.011875 5.87756 0.0604167C4.81297 0.109167 4.08629 0.277708 3.45045 0.525C2.79274 0.780417 2.23481 1.12208 1.67898 1.67813C1.12272 2.23396 0.78105 2.79187 0.524797 3.44937C0.276878 4.08542 0.108126 4.81229 0.0602089 5.87646C0.0125001 6.94312 0 7.28417 0 10C0 12.7158 0.0120834 13.0556 0.0604173 14.1223C0.109376 15.1869 0.27792 15.9135 0.525005 16.5494C0.780633 17.2071 1.1223 17.765 1.67835 18.3208C2.23398 18.8771 2.7919 19.2196 3.4492 19.475C4.08546 19.7223 4.81234 19.8908 5.87673 19.9396C6.94341 19.9881 7.28403 20 9.99969 20C12.7158 20 13.0556 19.9881 14.1222 19.9396C15.1868 19.8908 15.9143 19.7223 16.5506 19.475C17.2081 19.2196 17.7652 18.8771 18.3208 18.3208C18.8771 17.765 19.2187 17.2071 19.475 16.5496C19.7208 15.9135 19.8896 15.1867 19.9396 14.1225C19.9875 13.0558 20 12.7158 20 10C20 7.28417 19.9875 6.94333 19.9396 5.87667C19.8896 4.81208 19.7208 4.08542 19.475 3.44958C19.2187 2.79187 18.8771 2.23396 18.3208 1.67813C17.7646 1.12187 17.2083 0.780208 16.55 0.525C15.9125 0.277708 15.1854 0.109167 14.1208 0.0604167C13.0541 0.011875 12.7145 0 9.99781 0H10.0009ZM9.10383 1.80209C9.27802 1.80182 9.46541 1.8019 9.66763 1.80199L10.0009 1.80209C12.671 1.80209 12.9874 1.81167 14.0418 1.85959C15.0168 1.90417 15.546 2.06709 15.8985 2.20397C16.3652 2.38522 16.6979 2.60188 17.0477 2.95188C17.3977 3.30188 17.6143 3.63522 17.796 4.10188C17.9329 4.45397 18.096 4.98313 18.1404 5.95813C18.1883 7.0123 18.1987 7.32897 18.1987 9.99772C18.1987 12.6665 18.1883 12.9831 18.1404 14.0373C18.0958 15.0123 17.9329 15.5415 17.796 15.8935C17.6148 16.3602 17.3977 16.6925 17.0477 17.0423C16.6977 17.3923 16.3654 17.609 15.8985 17.7902C15.5464 17.9277 15.0168 18.0902 14.0418 18.1348C12.9876 18.1827 12.671 18.1931 10.0009 18.1931C7.33069 18.1931 7.01423 18.1827 5.96005 18.1348C4.98504 18.0898 4.45587 17.9269 4.10315 17.79C3.63648 17.6088 3.30315 17.3921 2.95314 17.0421C2.60314 16.6921 2.38647 16.3596 2.2048 15.8927C2.06792 15.5406 1.9048 15.0115 1.86042 14.0365C1.8125 12.9823 1.80292 12.6656 1.80292 9.99522C1.80292 7.3248 1.8125 7.0098 1.86042 5.95563C1.90501 4.98063 2.06792 4.45147 2.2048 4.09897C2.38605 3.6323 2.60314 3.29897 2.95314 2.94897C3.30315 2.59897 3.63648 2.3823 4.10315 2.20063C4.45566 2.06313 4.98504 1.90063 5.96005 1.85584C6.88256 1.81417 7.24006 1.80167 9.10383 1.79959V1.80209ZM14.1389 4.6621C14.1389 3.99939 14.6764 3.46251 15.3389 3.46251V3.4621C16.0014 3.4621 16.5389 3.9996 16.5389 4.6621C16.5389 5.3246 16.0014 5.8621 15.3389 5.8621C14.6764 5.8621 14.1389 5.3246 14.1389 4.6621ZM10.0007 4.86459C7.16474 4.8647 4.86546 7.16404 4.86546 10C4.86546 12.8361 7.16485 15.1344 10.0009 15.1344C12.837 15.1344 15.1356 12.8361 15.1356 10C15.1356 7.16397 12.8368 4.86459 10.0007 4.86459ZM13.3343 9.99999C13.3343 8.15895 11.8418 6.66666 10.0009 6.66666C8.15987 6.66666 6.66757 8.15895 6.66757 9.99999C6.66757 11.8408 8.15987 13.3333 10.0009 13.3333C11.8418 13.3333 13.3343 11.8408 13.3343 9.99999Z" fill="black"/>
</svg>
