<svg width="356" height="255" viewBox="0 0 356 255" fill="none" xmlns="http://www.w3.org/2000/svg">
<g clip-path="url(#clip0_103_1005)">
<path opacity="0.1" d="M23.3002 99.9468H54.2411V140.827H25.5625C25.4894 141.249 25.4162 141.669 25.3339 142.092H54.2411V175.055C54.1923 175.055 54.1435 175.019 54.0978 175.001C53.2847 174.688 52.4717 174.356 51.6586 174.005C51.4848 173.929 51.3141 173.849 51.1372 173.775C50.3242 173.403 49.5111 173.009 48.6981 172.593C48.4145 172.448 48.131 172.297 47.8535 172.144C43.3397 169.702 39.2373 166.607 35.6881 162.965C35.5814 162.867 35.4839 162.761 35.3832 162.669C34.8893 162.149 34.4045 161.623 33.935 161.085C33.7581 160.887 33.5874 160.686 33.4136 160.494C32.8587 159.838 32.3221 159.158 31.8038 158.476C31.7245 158.372 31.6513 158.272 31.5751 158.18C29.4518 155.332 27.691 152.246 26.3309 148.989C26.2882 148.892 26.2485 148.785 26.2089 148.694C25.7882 147.659 25.407 146.61 25.0777 145.54C24.9375 145.094 24.8003 144.654 24.6844 144.19C24.6417 144.057 24.6082 143.921 24.5716 143.788C22.8581 137.242 22.6599 130.439 22.6599 123.669C22.6599 122.881 22.6599 122.092 22.6599 121.304C22.6843 118.54 22.7178 115.779 22.7605 113.021C22.7768 112.312 22.792 111.599 22.8063 110.884C22.8489 109.074 22.9099 107.259 22.9892 105.441C23.0075 104.938 23.0319 104.433 23.0593 103.933C23.0715 103.644 23.0868 103.354 23.1051 103.065C23.1599 102.018 23.225 100.979 23.3002 99.9468Z" fill="#47B4AC"/>
<path opacity="0.1" d="M54.2412 54.4298H37.2676C40.028 50.2467 43.0426 46.2263 46.2956 42.3901C48.8201 39.3876 51.4788 36.4619 54.2412 33.6426V54.4298Z" fill="#47B4AC"/>
<path opacity="0.1" d="M54.241 55.6887V98.6818H23.3977C23.3977 98.5576 23.416 98.4306 23.4282 98.3064C23.4556 97.9666 23.4831 97.6297 23.5136 97.2898C23.5441 96.8938 23.5837 96.4978 23.6233 96.1077C23.663 95.7176 23.7026 95.2448 23.7514 94.8163C23.8002 94.3878 23.8398 93.9534 23.8886 93.5248C23.9374 93.0963 23.9862 92.6678 24.041 92.2423C24.0959 91.8167 24.1447 91.3852 24.2057 90.9597C24.2514 90.608 24.2971 90.2534 24.349 89.8987C24.4191 89.3993 24.4923 88.8999 24.5685 88.4034C24.5685 88.3266 24.5929 88.2527 24.6051 88.1788C25.1623 84.5447 25.9196 80.942 26.8735 77.3862C27.8753 73.6567 29.1541 70.0024 30.7 66.4518C32.3426 62.7315 34.2666 59.134 36.4564 55.6887H54.241Z" fill="#47B4AC"/>
<path opacity="0.1" d="M61.6318 99.9468V140.827H127.721V99.9468H61.6318ZM61.6318 142.092V177.2C62.0099 177.274 62.3819 177.348 62.7569 177.41C63.26 177.504 63.7661 177.59 64.2814 177.664L64.5863 177.705C64.7875 177.738 64.9918 177.765 65.1961 177.788C65.7053 177.859 66.2144 177.912 66.7206 177.96C66.9584 177.983 67.2053 178.001 67.4462 178.022L68.0347 178.063C68.3548 178.087 68.6719 178.104 68.989 178.116C69.1841 178.116 69.3793 178.131 69.5774 178.137C69.7756 178.143 69.8823 178.137 70.0409 178.137H70.6171C70.8793 178.137 71.1416 178.137 71.4007 178.137H71.7361C71.9983 178.137 72.2605 178.137 72.5197 178.113H72.5349C72.7179 178.113 72.8978 178.113 73.0807 178.093C73.1325 178.096 73.1844 178.096 73.2362 178.093C73.3886 178.093 73.5411 178.093 73.6874 178.075C73.7219 178.072 73.7566 178.072 73.7911 178.075C74.1295 178.054 74.471 178.028 74.8156 177.998C75.1601 177.968 75.4863 177.933 75.8309 177.898L76.523 177.815C79.3512 177.431 82.1479 176.854 84.8924 176.089C91.0604 174.422 97.0882 172.09 103.253 170.385C111.217 168.184 120.023 167.099 127.718 169.779V142.092H61.6318ZM127.721 54.4299V0.00595813C120.486 -0.0711952 113.271 0.748136 106.25 2.44404C89.5146 6.51934 74.4863 15.3585 61.6318 26.6476V54.427H64.9583V55.6889H61.6318V98.6819H127.721V55.6889H78.5658V54.424L127.721 54.4299ZM212.629 36.0453C208.488 35.9034 204.372 34.6356 200.646 32.6704C193.53 28.9202 187.841 23.122 181.487 18.234C168.285 8.04721 151.912 1.89732 135.115 0.37241V54.4299H229.453L229.688 54.1906L212.629 36.0453ZM221.224 34.5677L230.337 44.2639V32.0173C227.27 32.3926 224.599 33.2644 221.224 34.5559V34.5677ZM230.337 185.918V142.092H210.903C210.854 141.905 210.799 141.716 210.738 141.527C210.796 141.716 210.848 141.905 210.9 142.092H135.115V173.784C135.834 174.301 136.545 174.848 137.249 175.397C138.009 176 138.765 176.61 139.515 177.227L140.271 177.833C140.634 178.128 141.002 178.424 141.368 178.704C142.102 179.278 142.841 179.845 143.585 180.407C143.957 180.69 144.331 180.969 144.707 181.243C150.662 185.654 156.944 189.636 163.501 193.156C164.97 193.95 166.455 194.716 167.949 195.464C168.943 195.96 169.944 196.447 170.952 196.923C172.465 197.639 173.989 198.328 175.526 198.992C189.693 205.156 204.674 209.385 220.041 211.558C223.452 212.045 226.878 212.429 230.319 212.71V185.912H230.624L230.337 185.918ZM135.115 55.6889V98.6819H230.337V55.6889H135.115ZM135.115 99.9409V140.827H230.337V99.9468L135.115 99.9409ZM237.728 31.9582V45.641L249.357 33.2674C245.503 32.6507 241.626 32.2143 237.728 31.9582ZM237.728 99.9468V140.827H330.34V99.9468H237.728ZM330.014 189.16L330.34 142.092H237.728V213.186C243.693 213.427 249.668 213.357 255.625 212.976H255.729C258.575 212.799 261.407 212.547 264.226 212.22H264.29C279.336 210.522 294.046 206.714 307.961 200.913L330.014 189.16ZM348.207 106.661C347.855 105.873 347.495 105.085 347.125 104.297C346.436 102.819 345.71 101.383 344.96 99.9497H337.734V140.827H356C355.985 129.248 352.96 117.427 348.207 106.661ZM337.734 142.092V182.579C342.877 177.8 347.228 172.33 350.357 166.077C354.122 158.544 355.845 150.393 355.988 142.089L337.734 142.092ZM337.734 88.0341V98.6731H344.283C342.298 95.0158 340.111 91.4644 337.734 88.0341ZM274.925 39.9817C274.443 39.8014 273.959 39.6212 273.474 39.4498C268.362 37.6187 263.139 36.0968 257.833 34.8927L240.033 53.8241L239.685 54.1876L239.914 54.427H303.265C294.442 48.5419 284.928 43.6929 274.925 39.9817ZM305.125 55.6889H239.027L237.728 56.8385V98.6819H249.116H330.34V78.4089C322.996 69.8 314.518 62.1616 305.125 55.6889Z" fill="#47B4AC"/>
<path opacity="0.1" d="M54.241 77.3774V98.6819H23.3977C23.3977 98.5578 23.416 98.4307 23.4282 98.3065C23.4556 97.9667 23.4831 97.6298 23.5136 97.2899C23.5441 96.8939 23.5837 96.4979 23.6233 96.1078C23.663 95.7177 23.7026 95.2449 23.7514 94.8164C23.8002 94.3879 23.8398 93.9535 23.8886 93.525C23.9374 93.0964 23.9862 92.6679 24.041 92.2424C24.0959 91.8168 24.1447 91.3853 24.2057 90.9598C24.2514 90.6081 24.2971 90.2535 24.349 89.8989C24.4191 89.3994 24.4923 88.9 24.5685 88.4035C24.5685 88.3267 24.5929 88.2528 24.6051 88.1789C25.1623 84.5448 25.9196 80.9421 26.8735 77.3863L54.241 77.3774Z" fill="#47B4AC"/>
<path opacity="0.1" d="M23.3002 99.9468H54.2411V140.827H25.5625C25.4894 141.249 25.4162 141.669 25.3339 142.092H54.2411V175.055C54.1923 175.055 54.1435 175.019 54.0978 175.001C53.2847 174.688 52.4717 174.356 51.6586 174.005C51.4848 173.929 51.3141 173.849 51.1372 173.775C50.3242 173.403 49.5111 173.009 48.6981 172.593C48.4145 172.448 48.131 172.297 47.8535 172.144C43.3397 169.702 39.2373 166.607 35.6881 162.965C35.5814 162.867 35.4839 162.761 35.3832 162.669C34.8893 162.149 34.4045 161.623 33.935 161.085C33.7581 160.887 33.5874 160.686 33.4136 160.494C32.8587 159.838 32.3221 159.158 31.8038 158.476C31.7245 158.372 31.6513 158.272 31.5751 158.18C29.4518 155.332 27.691 152.246 26.3309 148.989C26.2882 148.892 26.2485 148.785 26.2089 148.694C25.7882 147.659 25.407 146.61 25.0777 145.54C24.9375 145.094 24.8003 144.654 24.6844 144.19C24.6417 144.057 24.6082 143.921 24.5716 143.788C22.8581 137.242 22.6599 130.439 22.6599 123.669C22.6599 122.881 22.6599 122.092 22.6599 121.304C22.6843 118.54 22.7178 115.779 22.7605 113.021C22.7768 112.312 22.792 111.599 22.8063 110.884C22.8489 109.074 22.9099 107.259 22.9892 105.441C23.0075 104.938 23.0319 104.433 23.0593 103.933C23.0715 103.644 23.0868 103.354 23.1051 103.065C23.1599 102.018 23.225 100.979 23.3002 99.9468Z" fill="#47B4AC"/>
<path opacity="0.1" d="M84.8953 61.8476V98.6819H61.6287V61.8476H64.9459V49.3765H78.5626V61.8476H84.8953Z" fill="#47B4AC"/>
<path opacity="0.1" d="M84.8923 99.9438H61.6287V140.824H84.8923V99.9438Z" fill="#47B4AC"/>
<path opacity="0.1" d="M61.6318 142.092H84.8954V176.077C82.1513 176.843 79.3544 177.419 76.526 177.8C76.2943 177.832 76.0656 177.859 75.8339 177.883C75.4924 177.921 75.154 177.957 74.8155 177.986L73.7941 178.066H73.6905L73.2392 178.09H73.0837C72.9008 178.09 72.7209 178.11 72.538 178.113H72.5227C72.2605 178.113 72.0014 178.131 71.7391 178.137H71.4038C71.1446 178.137 70.8854 178.137 70.6202 178.137H70.047H69.5805C69.3823 178.137 69.1872 178.137 68.989 178.113C68.676 178.101 68.3589 178.084 68.0377 178.06L67.4493 178.019C67.2053 178.001 66.9614 177.977 66.7206 177.954C66.2083 177.91 65.7002 177.854 65.1961 177.785L64.5863 177.702L64.2814 177.661C63.7722 177.587 63.2661 177.504 62.7569 177.41C62.3788 177.345 62.0069 177.271 61.6318 177.194V142.092Z" fill="#47B4AC"/>
<path opacity="0.1" d="M230.334 57.4973H211.15V98.6788H230.334V57.4973Z" fill="#47B4AC"/>
<path opacity="0.1" d="M230.337 99.9438V140.827H135.115V123.193H185.834V133.595H211.15V99.9438H230.337Z" fill="#47B4AC"/>
<path opacity="0.1" d="M230.639 185.927C230.538 185.927 230.438 185.927 230.334 185.909V212.728C226.897 212.454 223.472 212.071 220.059 211.578C204.687 209.406 189.7 205.18 175.526 199.019C171.434 197.23 167.426 195.28 163.501 193.17C156.946 189.649 150.665 185.667 144.71 181.258C143.21 180.146 141.732 179.011 140.277 177.85C139.267 177.04 138.267 176.213 137.249 175.412C136.548 174.859 135.837 174.313 135.115 173.793V142.092H210.9C210.845 141.902 210.796 141.716 210.741 141.527C210.799 141.716 210.854 141.902 210.903 142.092H230.337V185.906C230.437 185.909 230.538 185.918 230.639 185.927Z" fill="#47B4AC"/>
<path opacity="0.1" d="M280.37 54.4299H267.87V50.6649H273.471V39.4497C273.956 39.6231 274.44 39.8004 274.922 39.9817V50.6649H280.367L280.37 54.4299Z" fill="#47B4AC"/>
<path opacity="0.1" d="M310.491 98.6818H249.116C249.122 98.6831 249.128 98.6831 249.134 98.6818H249.106H237.728V57.5003H240.954V87.9394H255.692V69.9124H267.873V55.6887H280.374V69.9212H292.548V87.9483H310.494L310.491 98.6818Z" fill="#47B4AC"/>
<path opacity="0.1" d="M237.728 99.9468V140.827H310.494V99.9468H237.728ZM330.236 188.944L330.34 156.584H310.494V142.103H237.728V213.186C243.693 213.427 249.668 213.357 255.625 212.976H255.729C258.575 212.799 261.407 212.547 264.226 212.22H264.29C279.336 210.522 294.046 206.714 307.961 200.913" fill="#47B4AC"/>
<path opacity="0.1" d="M339.014 142.092H355.988C355.841 150.393 354.122 158.546 350.356 166.076C347.228 172.333 342.877 177.803 337.734 182.581V156.575H339.014V142.092Z" fill="#47B4AC"/>
<path opacity="0.1" d="M356 140.827H339.014V106.661H348.207C352.96 117.427 355.985 129.248 356 140.827Z" fill="#47B4AC"/>
<path opacity="0.1" d="M230.337 68.946H220.059V81.8575H230.337V68.946Z" fill="#47B4AC"/>
<path opacity="0.1" d="M230.337 95.709H220.059V98.682H230.337V95.709Z" fill="#47B4AC"/>
<path opacity="0.1" d="M230.337 99.9438H220.059V108.618H230.337V99.9438Z" fill="#47B4AC"/>
<path opacity="0.1" d="M230.337 122.472H220.059V135.383H230.337V122.472Z" fill="#47B4AC"/>
<path opacity="0.1" d="M230.337 149.234H220.059V162.146H230.337V149.234Z" fill="#47B4AC"/>
<path opacity="0.1" d="M230.337 185.906C230.437 185.906 230.538 185.906 230.642 185.927C230.541 185.927 230.44 185.927 230.337 185.909V188.909H220.059V175.997H230.337V185.906Z" fill="#47B4AC"/>
<path opacity="0.1" d="M230.337 202.757V212.728C226.898 212.454 223.472 212.071 220.059 211.578V202.757H230.337Z" fill="#47B4AC"/>
<path opacity="0.1" d="M179.163 139.878H135.115V140.827H179.163V139.878Z" fill="#47B4AC"/>
<path opacity="0.1" d="M179.163 142.089H135.115V145.724H179.163V142.089Z" fill="#47B4AC"/>
<path opacity="0.1" d="M179.163 157.639H135.115V163.485H179.163V157.639Z" fill="#47B4AC"/>
<path opacity="0.1" d="M179.163 175.4V181.246H144.71C143.21 180.139 141.732 179.002 140.277 177.836C139.264 177.029 138.264 176.201 137.249 175.4H179.163Z" fill="#47B4AC"/>
<path opacity="0.1" d="M179.163 193.158V199.019H175.526C171.434 197.23 167.426 195.28 163.501 193.17L179.163 193.158Z" fill="#47B4AC"/>
<path opacity="0.1" d="M264.296 103.907H255.625V112.311H264.296V103.907Z" fill="#47B4AC"/>
<path opacity="0.1" d="M76.5472 64.7466H67.876V73.1513H76.5472V64.7466Z" fill="#47B4AC"/>
<path opacity="0.1" d="M76.5472 84.269H67.876V92.6738H76.5472V84.269Z" fill="#47B4AC"/>
<path opacity="0.1" d="M76.5472 103.792H67.876V112.196H76.5472V103.792Z" fill="#47B4AC"/>
<path opacity="0.1" d="M76.5472 123.311H67.876V131.716H76.5472V123.311Z" fill="#47B4AC"/>
<path opacity="0.1" d="M76.5472 142.833H67.876V151.238H76.5472V142.833Z" fill="#47B4AC"/>
<path opacity="0.1" d="M76.5472 162.356H67.876V170.76H76.5472V162.356Z" fill="#47B4AC"/>
<path opacity="0.1" d="M297.399 103.907H288.728V112.311H297.399V103.907Z" fill="#47B4AC"/>
<path opacity="0.1" d="M264.296 124.638H255.625V133.043H264.296V124.638Z" fill="#47B4AC"/>
<path opacity="0.1" d="M297.399 124.638H288.728V133.043H297.399V124.638Z" fill="#47B4AC"/>
<path opacity="0.1" d="M264.296 145.366H255.625V153.771H264.296V145.366Z" fill="#47B4AC"/>
<path opacity="0.1" d="M297.399 145.366H288.728V153.771H297.399V145.366Z" fill="#47B4AC"/>
<path opacity="0.1" d="M264.296 166.097H255.625V174.502H264.296V166.097Z" fill="#47B4AC"/>
<path opacity="0.1" d="M297.399 166.097H288.728V174.502H297.399V166.097Z" fill="#47B4AC"/>
<path opacity="0.1" d="M264.296 186.828H255.625V195.233H264.296V186.828Z" fill="#47B4AC"/>
<path opacity="0.1" d="M297.399 186.828H288.728V195.233H297.399V186.828Z" fill="#47B4AC"/>
<path opacity="0.1" d="M255.625 212.976V207.556H264.293V212.205L255.625 212.976Z" fill="#47B4AC"/>
<path opacity="0.1" d="M24.5686 88.1699V92.9781H54.2411V88.1699H24.5686ZM27.523 92.6767H25.0839V88.4743H27.523V92.6767ZM30.4775 92.6767H28.0383V88.4743H30.4775V92.6767ZM33.4258 92.6767H30.9867V88.4743H33.4258V92.6767ZM36.3803 92.6767H33.9411V88.4743H36.3803V92.6767ZM39.3317 92.6767H36.8925V88.4743H39.3317V92.6767ZM42.2861 92.6767H39.847V88.4743H42.2861V92.6767ZM45.2406 92.6767H42.8014V88.4743H45.2406V92.6767ZM48.192 92.6767H45.7528V88.4743H48.192V92.6767ZM51.1434 92.6767H48.7042V88.4743H51.1434V92.6767ZM54.0978 92.6767H51.6586V88.4743H54.0978V92.6767Z" fill="#47B4AC"/>
<path opacity="0.1" d="M24.5686 102.166V106.974H54.2411V102.166H24.5686ZM27.523 106.673H25.0839V102.47H27.523V106.673ZM30.4775 106.673H28.0383V102.47H30.4775V106.673ZM33.4258 106.673H30.9867V102.47H33.4258V106.673ZM36.3803 106.673H33.9411V102.47H36.3803V106.673ZM39.3317 106.673H36.8925V102.47H39.3317V106.673ZM42.2861 106.673H39.847V102.47H42.2861V106.673ZM45.2406 106.673H42.8014V102.47H45.2406V106.673ZM48.192 106.673H45.7528V102.47H48.192V106.673ZM51.1434 106.673H48.7042V102.47H51.1434V106.673ZM54.0978 106.673H51.6586V102.47H54.0978V106.673Z" fill="#47B4AC"/>
<path opacity="0.1" d="M24.5686 116.165V120.97H54.2411V116.165H24.5686ZM27.523 120.666H25.0839V116.464H27.523V120.666ZM30.4775 120.666H28.0383V116.464H30.4775V120.666ZM33.4258 120.666H30.9867V116.464H33.4258V120.666ZM36.3803 120.666H33.9411V116.464H36.3803V120.666ZM39.3317 120.666H36.8925V116.464H39.3317V120.666ZM42.2861 120.666H39.847V116.464H42.2861V120.666ZM45.2406 120.666H42.8014V116.464H45.2406V120.666ZM48.192 120.666H45.7528V116.464H48.192V120.666ZM51.1434 120.666H48.7042V116.464H51.1434V120.666ZM54.0978 120.666H51.6586V116.464H54.0978V120.666Z" fill="#47B4AC"/>
<path opacity="0.1" d="M24.5686 130.161V134.966H54.2411V130.161H24.5686ZM27.523 134.665H25.0839V130.457H27.523V134.665ZM30.4775 134.665H28.0383V130.457H30.4775V134.665ZM33.4258 134.665H30.9867V130.457H33.4258V134.665ZM36.3803 134.665H33.9411V130.457H36.3803V134.665ZM39.3317 134.665H36.8925V130.457H39.3317V134.665ZM42.2861 134.665H39.847V130.457H42.2861V134.665ZM45.2406 134.665H42.8014V130.457H45.2406V134.665ZM48.192 134.665H45.7528V130.457H48.192V134.665ZM51.1434 134.665H48.7042V130.457H51.1434V134.665ZM54.0978 134.665H51.6586V130.457H54.0978V134.665Z" fill="#47B4AC"/>
<path opacity="0.1" d="M24.7119 144.151C24.8278 144.606 24.965 145.056 25.1052 145.502V144.456H27.5444V148.655H26.2364C26.273 148.756 26.3126 148.859 26.3553 148.951H54.2533V144.151H24.7119ZM30.5049 148.655H28.0658V144.456H30.5049V148.655ZM33.4533 148.655H31.0141V144.456H33.4533V148.655ZM36.4077 148.655H33.9686V144.456H36.4077V148.655ZM39.3591 148.655H36.92V144.456H39.3591V148.655ZM42.3136 148.655H39.8744V144.456H42.3136V148.655ZM45.268 148.655H42.8289V144.456H45.268V148.655ZM48.2194 148.655H45.7803V144.456H48.2194V148.655ZM51.1708 148.655H48.7316V144.456H51.1708V148.655ZM54.1253 148.655H51.6861V144.456H54.1253V148.655Z" fill="#47B4AC"/>
<path opacity="0.1" d="M31.5842 158.147C31.6635 158.242 31.7367 158.348 31.8129 158.443H33.4258V160.461L33.9472 161.052V158.431H36.3863V162.669H35.3832C35.4808 162.767 35.5753 162.87 35.6881 162.965H54.235V158.147H31.5842ZM39.3469 162.669H36.9077V158.449H39.3469V162.669ZM42.3013 162.669H39.8622V158.449H42.3013V162.669ZM45.2558 162.669H42.8166V158.449H45.2558V162.669ZM48.2072 162.669H45.768V158.449H48.2072V162.669ZM51.1586 162.669H48.7194V158.449H51.1586V162.669ZM54.113 162.669H51.6738V158.449H54.113V162.669Z" fill="#47B4AC"/>
<path opacity="0.1" d="M47.8625 172.144C48.1431 172.297 48.4266 172.439 48.7102 172.59V172.442H51.1493V173.775C51.3262 173.849 51.4939 173.929 51.6677 174.005V172.442H54.1068V175.001C54.1532 175.022 54.2011 175.038 54.2501 175.051V172.144H47.8625Z" fill="#47B4AC"/>
<path opacity="0.1" d="M230.334 185.906H230.639H230.334ZM210.738 141.527C210.796 141.716 210.848 141.905 210.9 142.091C210.854 141.905 210.799 141.716 210.738 141.527ZM64.9583 54.4297V55.6887H78.578V54.4238L64.9583 54.4297ZM230.337 185.906H230.642H230.337ZM210.738 141.527C210.796 141.716 210.848 141.905 210.9 142.091C210.854 141.905 210.799 141.716 210.738 141.527ZM230.334 185.906H230.639H230.334ZM210.738 141.527C210.796 141.716 210.848 141.905 210.9 142.091C210.854 141.905 210.799 141.716 210.738 141.527Z" fill="#47B4AC"/>
<path opacity="0.1" d="M221.027 255C237.435 255 250.736 252.929 250.736 250.375C250.736 247.821 237.435 245.75 221.027 245.75C204.619 245.75 191.318 247.821 191.318 250.375C191.318 252.929 204.619 255 221.027 255Z" fill="#47B4AC"/>
<path opacity="0.1" d="M134.145 250.375C150.553 250.375 163.854 248.304 163.854 245.75C163.854 243.196 150.553 241.125 134.145 241.125C117.737 241.125 104.436 243.196 104.436 245.75C104.436 248.304 117.737 250.375 134.145 250.375Z" fill="#47B4AC"/>
<path d="M168.349 123.456C168.341 123.426 168.325 123.4 168.303 123.379C167.848 122.945 162.055 115.004 162.055 115.004C162.055 115.004 161.751 114.117 161.257 112.965C161.415 112.766 161.534 112.54 161.607 112.3C161.634 112.198 161.653 112.094 161.665 111.989C161.665 111.957 161.69 111.93 161.699 111.898C161.805 111.497 161.794 111.076 161.668 110.68C161.634 110.782 161.593 110.88 161.543 110.976C161.429 110.631 161.275 110.3 161.086 109.989C160.318 108.706 159.22 107.624 158.412 106.374C157.188 104.432 156.702 102.137 157.037 99.8846C157.037 99.9999 157.037 100.118 157.037 100.233C157.067 99.7866 157.129 99.3424 157.22 98.9035C157.347 98.404 157.518 97.9156 157.729 97.4436C158.455 95.833 159.628 94.4292 160.342 92.8127C160.581 92.2675 160.763 91.7001 160.885 91.1194C161.136 90.1494 161.228 89.147 161.156 88.1493C161.156 88.3857 161.116 88.6222 161.08 88.8556C161.003 86.4569 160.003 84.1728 158.278 82.4516C155.787 80.0253 152.21 79.0826 148.789 78.5861C147.352 78.4235 145.979 77.9156 144.795 77.1085C143.481 76.284 141.783 76.086 140.246 76.2662C138.48 76.4513 136.839 77.2378 135.615 78.4856C133.99 80.2174 133.285 82.6703 131.389 84.1302C130.24 85.0168 128.782 85.4305 127.444 86.0334C126.105 86.6362 124.84 87.511 124.41 88.8054C124.41 88.8054 124.41 88.7877 124.41 88.7788V88.8527L124.392 88.9C123.946 90.4308 124.806 91.9882 125.254 93.5161C125.721 95.0971 125.751 96.7669 125.776 98.4011C125.809 100.399 125.84 102.4 125.806 104.4C125.791 105.186 125.764 105.981 125.703 106.764C124.981 106.976 124.28 107.249 123.608 107.58C122.925 108.012 120.37 110.686 120.37 110.686L115.373 129.192L115.44 129.266L115.373 129.517L115.626 129.461C116.333 130.2 118.446 132.304 120.727 133.616L120.94 137.245C120.94 137.245 121.196 140.886 124.651 142.39C124.73 143.652 124.977 148.776 123.834 150.807C123.042 152.29 122.67 153.95 122.754 155.618C122.754 155.618 123.154 158.697 122.699 160.317C122.434 161.399 122.414 162.524 122.642 163.615C122.642 163.615 122.642 163.972 122.642 164.587C122.642 167.864 122.681 178.367 122.642 179.555C122.584 180.959 122.642 201.72 122.642 201.72C122.642 201.72 122.358 212.096 121.449 214.906C120.541 217.717 120.769 227.023 120.769 227.023C120.769 227.023 120.199 238.108 122.215 240.295C122.215 240.392 122.196 240.493 122.193 240.59C122.193 240.635 122.193 240.685 122.193 240.729C122.169 241.571 122.337 242.467 123.084 242.742C124.608 243.309 126.623 245.011 127.005 245.499C127.386 245.987 129.602 247.201 132.493 246.876C134.303 246.679 136.126 246.598 137.947 246.634C137.947 246.634 139.088 246.433 138.719 245.059C138.481 244.202 137.591 242.884 136.956 242.018C137.072 242.047 137.185 242.071 137.292 242.092L137.402 242.112H137.487C137.534 242.115 137.58 242.115 137.627 242.112H137.688C137.745 242.117 137.802 242.117 137.859 242.112C138.624 242.041 141.478 243.33 141.987 244.181C142.496 245.032 144.292 245.679 145.646 245.842C146.451 245.936 148.481 245.777 150.186 245.564C151.044 245.478 151.894 245.328 152.729 245.115C153.131 244.967 153.217 244.494 153.101 243.962C152.964 243.287 152.591 242.677 152.046 242.236C151.552 241.896 150.899 241.001 150.418 240.268L150.29 240.07C151.14 239.284 152.677 236.713 153.143 236.181C153.71 235.534 152.229 211.865 152.229 211.865V200L154.5 188.77L156.089 182.827L157.452 173.855C157.452 173.855 159.836 163.375 159.101 162.347C159.101 162.326 158.491 151.537 157.851 148.945C157.573 147.789 157.644 145.189 157.808 142.659C157.98 142.493 158.1 142.284 158.154 142.055C158.208 141.826 158.194 141.586 158.113 141.365C158.068 141.213 158.008 141.066 157.936 140.924C157.936 140.88 157.936 140.833 157.936 140.788C159.253 140.201 160.63 139.747 162.043 139.435C164.315 139.003 163.748 137.869 163.748 137.869C163.748 137.869 164.26 136.896 164.598 136.302C164.937 135.708 164.656 130.466 164.598 130.034C164.577 129.86 164.437 128.896 164.275 127.803C165.004 127.301 165.952 126.677 166.986 126.086C168.952 124.957 168.51 123.766 168.349 123.456ZM138.713 198.38C138.713 198.38 137.008 202.595 137.691 203.673C138.374 204.752 137.578 208.756 137.578 208.756L137.008 214.699C137.008 214.699 135.42 225.722 135.987 228.314C136.432 230.347 136.597 236.42 136.648 238.953C136.609 238.968 136.572 238.986 136.536 239.006L136.459 239.045C136.722 238.049 136.612 236.033 135.31 231.979L135.2 215.231C135.2 215.231 134.999 195.886 136.575 193.723C138.152 191.56 138.71 187.886 138.71 187.886C138.71 187.886 138.368 193.185 138.146 194.589C137.923 195.993 138.713 198.38 138.713 198.38ZM135.539 240.008C135.523 240.044 135.505 240.079 135.493 240.112L135.408 240.005C135.451 240.009 135.495 240.01 135.539 240.008Z" fill="url(#paint0_linear_103_1005)"/>
<path d="M152.921 246.645C152.039 246.973 147.262 247.532 145.926 247.375C144.591 247.219 142.822 246.563 142.319 245.706C141.816 244.849 138.996 243.554 138.24 243.637C137.93 243.646 137.621 243.604 137.325 243.513C136.804 243.36 136.294 243.17 135.801 242.946C135.732 242.573 135.743 242.191 135.834 241.823C135.852 241.748 135.874 241.675 135.901 241.604C136.079 241.119 136.447 240.722 136.926 240.499L137.036 240.448C137.247 240.36 137.468 240.294 137.694 240.253C140.091 239.807 149.978 240.702 149.978 240.702C149.978 240.702 150.256 241.184 150.637 241.781C151.113 242.52 151.759 243.421 152.247 243.761C152.787 244.209 153.154 244.822 153.286 245.499C153.402 246.022 153.317 246.501 152.921 246.645Z" fill="white"/>
<path opacity="0.1" d="M152.921 246.645C152.04 246.973 147.265 247.532 145.929 247.375C144.594 247.219 142.826 246.56 142.319 245.706C141.813 244.852 138.999 243.554 138.243 243.637C137.487 243.72 135.804 242.945 135.804 242.945C135.804 242.945 135.542 241.763 136.304 240.957L137.828 242.006C137.828 242.006 141.908 243.232 142.664 244.37C143.42 245.508 144.798 246.143 146.789 246.258C148.277 246.353 151.695 245.791 153.296 245.511C153.402 246.022 153.32 246.501 152.921 246.645Z" fill="black"/>
<path d="M138.325 248.153C136.527 248.119 134.728 248.201 132.941 248.398C130.078 248.723 127.892 247.511 127.511 247.012C127.13 246.512 125.157 244.825 123.642 244.234C122.901 243.956 122.727 243.052 122.76 242.207C122.76 242.162 122.76 242.112 122.76 242.068C122.789 241.532 122.87 241.001 123.004 240.481L134.868 240.236L135.895 241.586L136.054 241.793L136.679 242.618C136.679 242.618 136.963 242.978 137.335 243.504C137.963 244.391 138.841 245.7 139.075 246.566C139.451 247.952 138.325 248.153 138.325 248.153Z" fill="white"/>
<path opacity="0.1" d="M138.325 248.153C136.527 248.119 134.728 248.201 132.941 248.398C130.081 248.723 127.892 247.511 127.514 247.012C127.136 246.512 125.157 244.81 123.642 244.24C122.901 243.962 122.727 243.058 122.76 242.213C123.608 242.405 125.389 242.895 126.087 243.749C127.002 244.89 128.639 246.808 130.965 246.929C132.843 247.027 137.417 246.702 139.094 246.572C139.454 247.952 138.325 248.153 138.325 248.153Z" fill="black"/>
<path opacity="0.1" d="M136.914 240.487C136.776 241.474 136.353 241.74 136.048 241.799C135.973 241.813 135.897 241.813 135.822 241.799C135.782 241.796 135.742 241.79 135.703 241.781C135.703 241.781 125.05 244.063 122.898 242.216C122.843 242.168 122.792 242.117 122.745 242.062C122.773 241.527 122.855 240.995 122.989 240.475L134.853 240.23L135.88 241.58C136.058 241.095 136.426 240.698 136.905 240.475L136.914 240.487Z" fill="black"/>
<path opacity="0.1" d="M150.634 241.769C150.396 242.024 150.198 242.168 150.073 242.118C149.512 241.899 144.914 241.14 143.454 241.793C141.993 242.446 137.051 241.899 137.051 241.899C137.051 241.899 137.051 241.332 137.023 240.422C137.235 240.333 137.456 240.268 137.682 240.227C140.079 239.78 149.966 240.676 149.966 240.676C149.966 240.676 150.256 241.172 150.634 241.769Z" fill="black"/>
<path d="M157.592 174.921L156.244 183.947L154.677 189.928L152.433 201.235V213.204C152.433 213.204 153.89 237.017 153.329 237.667C152.768 238.317 150.637 242.02 150.076 241.805C149.515 241.589 144.917 240.826 143.457 241.477C141.996 242.127 137.054 241.586 137.054 241.586C137.054 241.586 136.941 232.345 136.38 229.735C135.819 227.126 137.389 216.035 137.389 216.035L137.95 210.056C137.95 210.056 138.737 206.031 138.063 204.944C137.389 203.856 139.072 199.624 139.072 199.624C139.072 199.624 138.289 197.228 138.514 195.815C138.74 194.402 139.072 189.074 139.072 189.074C139.072 189.074 138.514 192.774 136.956 194.946C135.398 197.118 135.597 216.585 135.597 216.585L135.706 233.429C138.514 242.348 135.706 241.477 135.706 241.477C135.706 241.477 125.053 243.761 122.901 241.911C120.748 240.061 121.364 228.417 121.364 228.417C121.364 228.417 121.141 219.067 122.038 216.242C122.934 213.416 123.218 202.976 123.218 202.976C123.218 202.976 123.16 182.097 123.218 180.687C123.261 179.505 123.218 168.922 123.218 165.615C123.218 165.001 123.218 164.637 123.218 164.637L124.504 161.54L139.749 159.69H147.042C147.042 159.69 158.019 162.19 159.153 163.269C159.177 163.287 159.198 163.309 159.214 163.334C159.949 164.377 157.592 174.921 157.592 174.921Z" fill="#47B4AC"/>
<path opacity="0.1" d="M139.082 222.33C139.082 222.33 142.435 230.158 144.018 230.702C145.6 231.246 139.082 222.33 139.082 222.33Z" fill="black"/>
<path opacity="0.1" d="M140.323 233.855C140.323 233.855 151.646 234.399 151.534 235.596C151.421 236.793 140.323 233.855 140.323 233.855Z" fill="black"/>
<path opacity="0.1" d="M125.172 230.726C125.62 231.136 133.81 231.908 133.136 232.658C132.462 233.409 125.846 234.869 125.846 234.869L125.172 230.726Z" fill="black"/>
<path opacity="0.1" d="M123.828 217.22C123.828 217.545 125.511 227.658 125.962 228.092C126.413 228.527 130.112 228.961 130.112 228.961L123.828 217.22Z" fill="black"/>
<path d="M136.039 78.9909C134.432 80.7315 133.737 83.1992 131.865 84.6709C130.727 85.5575 129.288 85.9801 127.965 86.5829C126.642 87.1858 125.331 88.1049 124.937 89.4702C124.498 91.0069 125.346 92.5762 125.791 94.1129C126.251 95.7028 126.279 97.3637 126.306 99.0275C126.337 101.04 126.37 103.053 126.334 105.065C126.279 108.201 126.011 111.481 124.294 114.138C130.492 116.05 137.084 116.31 143.585 116.555C144.834 116.641 146.089 116.611 147.332 116.463C148.409 116.255 149.475 115.994 150.524 115.68C152.599 115.148 154.738 114.883 156.884 114.891C157.82 114.891 158.775 114.947 159.677 114.711C160.58 114.475 161.449 113.869 161.693 112.994C161.909 112.208 161.592 111.372 161.177 110.665C160.421 109.377 159.348 108.301 158.537 107.03C157.709 105.688 157.218 104.176 157.103 102.616C156.988 101.056 157.252 99.492 157.875 98.0493C158.595 96.4269 159.753 95.0143 160.461 93.3889C161.185 91.6437 161.378 89.7337 161.016 87.8856C160.654 86.0375 159.752 84.329 158.418 82.9628C155.957 80.5217 152.427 79.576 149.048 79.0736C147.626 78.9108 146.269 78.4025 145.103 77.596C143.807 76.7685 142.127 76.5676 140.609 76.7508C138.857 76.9411 137.235 77.7362 136.039 78.9909Z" fill="#CF6F80"/>
<g opacity="0.1">
<path opacity="0.1" d="M157.97 96.3442C157.348 97.7683 157.082 99.3143 157.192 100.857C157.261 99.7538 157.524 98.6703 157.97 97.6534C158.686 96.0309 159.845 94.6183 160.552 92.9929C161.131 91.6357 161.374 90.1664 161.263 88.7019C161.2 89.7284 160.96 90.7373 160.552 91.6867C159.845 93.3121 158.686 94.7218 157.97 96.3442Z" fill="black"/>
<path opacity="0.1" d="M126.398 98.6257C126.416 99.7841 126.435 100.946 126.438 102.104C126.438 100.508 126.422 98.9153 126.398 97.3224C126.374 95.6704 126.343 93.9977 125.883 92.4049C125.578 91.3942 125.126 90.3687 124.968 89.3491C124.697 90.7972 125.468 92.266 125.883 93.7111C126.343 95.2892 126.374 96.9737 126.398 98.6257Z" fill="black"/>
<path opacity="0.1" d="M159.781 113.021C158.866 113.26 157.927 113.207 156.991 113.201C154.846 113.188 152.709 113.448 150.634 113.975C149.584 114.288 148.519 114.548 147.442 114.755C146.198 114.905 144.942 114.937 143.692 114.85C137.411 114.611 131.041 114.353 125.026 112.613C124.847 112.999 124.644 113.374 124.416 113.736C130.615 115.645 137.206 115.908 143.704 116.153C144.954 116.24 146.21 116.208 147.454 116.059C148.527 115.853 149.589 115.594 150.634 115.281C152.705 114.752 154.838 114.489 156.979 114.498C157.915 114.498 158.866 114.554 159.769 114.315C160.671 114.076 161.54 113.476 161.784 112.601C161.887 112.196 161.876 111.771 161.754 111.372C161.482 112.199 160.644 112.775 159.781 113.021Z" fill="black"/>
</g>
<path d="M150.75 109.519C150.524 110.009 149.573 114.247 149.347 114.682C149.122 115.116 147.89 122.07 147.777 122.46C147.664 122.85 139.658 120.829 139.658 120.829L134.837 116.913L129.883 112.134C129.883 112.134 129.737 107.823 133.386 106.439C133.634 106.345 133.889 106.268 134.148 106.209C138.575 105.178 138.13 92.1301 138.13 92.1301L147.216 95.9335C147.216 95.9335 145.533 103.546 145.591 105.015C145.606 105.509 146.006 105.816 146.527 106.002C147.333 106.224 148.173 106.312 149.009 106.262C149.009 106.262 150.976 109.031 150.75 109.519Z" fill="#FBBEBE"/>
<path d="M167.016 123.816L168.306 124.144C168.306 124.144 169.26 125.551 167.016 126.86C165.591 127.699 164.223 128.626 162.921 129.635L156.29 131.591L155.012 127.705L161.183 123.166L167.016 123.816Z" fill="#47B4AC"/>
<path opacity="0.1" d="M167.016 123.816L168.306 124.144C168.306 124.144 169.26 125.551 167.016 126.86C165.591 127.699 164.223 128.626 162.921 129.635L156.29 131.591L155.012 127.705L161.183 123.166L167.016 123.816Z" fill="black"/>
<path d="M118.62 127.569L116.041 130.016C116.041 130.016 120.693 135.235 124.273 135.56C127.852 135.885 130.16 131.591 130.16 131.591L127.063 126.863L118.62 127.569Z" fill="#47B4AC"/>
<path opacity="0.1" d="M118.62 127.569L116.041 130.016C116.041 130.016 120.693 135.235 124.273 135.56C127.852 135.885 130.16 131.591 130.16 131.591L127.063 126.863L118.62 127.569Z" fill="black"/>
<path opacity="0.1" d="M143.121 100.656C148.077 100.656 152.094 96.7619 152.094 91.9585C152.094 87.1552 148.077 83.2612 143.121 83.2612C138.166 83.2612 134.148 87.1552 134.148 91.9585C134.148 96.7619 138.166 100.656 143.121 100.656Z" fill="black"/>
<path d="M143.121 100.003C148.077 100.003 152.094 96.1088 152.094 91.3055C152.094 86.5021 148.077 82.6082 143.121 82.6082C138.166 82.6082 134.148 86.5021 134.148 91.3055C134.148 96.1088 138.166 100.003 143.121 100.003Z" fill="#FBBEBE"/>
<path opacity="0.1" d="M159.22 164.321C157.177 164.548 155.164 164.985 153.216 165.624C149.863 166.706 123.58 165.642 123.215 165.624C123.215 165.01 123.215 164.646 123.215 164.646L124.501 161.549L139.746 159.699H147.039C147.039 159.699 158.015 162.199 159.15 163.278C159.195 163.928 159.22 164.321 159.22 164.321Z" fill="black"/>
<path opacity="0.1" d="M150.75 109.519C150.524 110.009 149.573 114.247 149.347 114.682C149.122 115.116 147.89 122.07 147.777 122.46C147.664 122.85 139.658 120.828 139.658 120.828L134.837 116.913L129.883 112.134C129.883 112.134 129.737 107.822 133.386 106.439L142.448 116.537L146.527 106.002C147.333 106.224 148.173 106.312 149.009 106.262C149.009 106.262 150.976 109.031 150.75 109.519Z" fill="black"/>
<path d="M142.448 116.863L133.173 106.519C132.63 106.183 132.009 105.983 131.367 105.937C130.725 105.892 130.08 106.001 129.493 106.256C127.416 107.128 124.837 107.834 124.163 108.269C123.489 108.703 120.965 111.392 120.965 111.392L128.483 130.457L125.172 143.014C125.172 143.014 125.678 149.429 124.389 151.767C123.603 153.262 123.235 154.93 123.321 156.605C123.321 156.605 123.715 159.705 123.267 161.333C123.005 162.422 122.985 163.552 123.209 164.649C123.209 164.649 149.854 165.736 153.217 164.649C155.164 164.007 157.176 163.57 159.22 163.346C159.22 163.346 158.61 152.47 158 149.861C157.391 147.251 158.507 137.304 158.507 137.304L157.778 126.647L162.15 115.713C162.15 115.713 159.781 108.703 157.311 107.997C157.311 107.997 152.826 106.962 151.872 106.475C150.918 105.987 148.113 105.55 148.113 105.55L146.64 106.029L142.448 116.863Z" fill="#47B4AC"/>
<path opacity="0.1" d="M155.388 126.288L135.871 125.001C135.377 124.969 134.949 125.33 134.916 125.809L132.82 155.677C132.787 156.156 133.16 156.57 133.654 156.603L153.171 157.889C153.665 157.922 154.093 157.56 154.126 157.081L156.221 127.213C156.255 126.735 155.882 126.32 155.388 126.288Z" fill="black"/>
<path d="M156.06 125.639L136.543 124.353C136.049 124.32 135.621 124.682 135.588 125.161L133.493 155.028C133.459 155.507 133.832 155.922 134.326 155.954L153.843 157.24C154.337 157.273 154.765 156.911 154.798 156.433L156.894 126.565C156.927 126.086 156.554 125.672 156.06 125.639Z" fill="#3F3D56"/>
<path d="M155.416 127.98L136.854 126.757L134.946 153.947L153.508 155.171L155.416 127.98Z" fill="white"/>
<path opacity="0.1" d="M153.752 134.92L138.589 133.892L138.293 137.988L153.456 139.016L153.752 134.92Z" fill="black"/>
<path opacity="0.1" d="M153.203 151.198L150.797 151.039L150.647 153.174L153.053 153.332L153.203 151.198Z" fill="black"/>
<path opacity="0.1" d="M150.83 146.046L138.513 145.234L138.363 147.369L150.68 148.18L150.83 146.046Z" fill="black"/>
<path d="M153.119 126.963L140.294 126.118L140.063 129.4L152.888 130.245L153.119 126.963Z" fill="#3F3D56"/>
<path opacity="0.1" d="M153.119 126.963L140.294 126.118L140.063 129.4L152.888 130.245L153.119 126.963Z" fill="black"/>
<path opacity="0.1" d="M143.57 163.721C143.57 163.721 143.457 179.815 139.082 189.057C139.082 189.057 144.356 176.878 144.356 176.39C144.356 175.903 147.271 170.79 146.49 169.268C145.71 167.746 143.57 163.721 143.57 163.721Z" fill="black"/>
<path opacity="0.1" d="M143.807 89.1304C143.64 87.7059 144 86.27 144.823 85.0788C144.725 86.2728 145.073 87.4611 145.804 88.4268C146.535 89.3926 147.6 90.0713 148.805 90.3391C148.702 90.2527 148.629 90.1381 148.594 90.0104C148.56 89.8827 148.566 89.748 148.613 89.6239C149.238 90.3096 149.716 91.1223 150.424 91.7251C151.131 92.328 152.192 92.6885 153.024 92.26C154.156 91.669 154.168 90.1116 153.875 88.8999C153.247 86.3195 151.958 83.9341 150.128 81.9639C149.671 81.3684 149.079 80.8834 148.396 80.5471C147.714 80.2107 146.96 80.0321 146.195 80.0253C144.463 79.8953 142.664 80.043 141.112 80.7966C140.239 81.2585 139.421 81.8125 138.673 82.4486L134.404 85.8235C133.994 86.1103 133.642 86.4691 133.368 86.8815C133.185 87.2262 133.075 87.603 133.045 87.9897C132.936 89.095 133.147 90.2079 133.654 91.2034C134.161 92.1989 134.945 93.0376 135.917 93.6254C135.896 92.7518 136.144 91.892 136.629 91.1553C137.114 90.4186 137.814 89.8382 138.639 89.488C138.769 89.5929 138.874 89.7233 138.947 89.8706C139.02 90.0179 139.059 90.1787 139.063 90.3421L139.963 88.7876C140.096 88.5047 140.307 88.2626 140.572 88.0872C141.127 87.7917 141.82 88.1404 142.292 88.5571C142.765 88.9738 143.225 89.4939 143.859 89.5589L143.884 87.245" fill="black"/>
<path d="M143.807 88.8053C143.639 87.3799 143.999 85.9429 144.823 84.7507C144.548 87.1149 146.387 89.556 148.808 90.0111C148.705 89.9253 148.631 89.8112 148.597 89.684C148.563 89.5568 148.569 89.4224 148.616 89.2989C149.241 89.9845 149.719 90.7942 150.427 91.4C151.134 92.0059 152.195 92.3635 153.027 91.932C154.159 91.3409 154.171 89.7835 153.878 88.5748C153.25 85.9944 151.961 83.609 150.131 81.6388C149.563 80.9678 148.847 80.4286 148.036 80.0607C147.449 79.8502 146.832 79.7286 146.207 79.7002C144.475 79.5701 142.676 79.715 141.124 80.4685C140.251 80.9325 139.434 81.4875 138.685 82.1235L134.417 85.4984C134.005 85.7844 133.653 86.1434 133.38 86.5564C133.196 86.9009 133.086 87.2779 133.057 87.6646C132.948 88.7695 133.159 89.8818 133.666 90.8768C134.174 91.8718 134.957 92.71 135.929 93.2973C135.909 92.4239 136.157 91.5644 136.642 90.8279C137.127 90.0913 137.826 89.5108 138.652 89.16C138.78 89.2652 138.885 89.3957 138.958 89.5429C139.031 89.6902 139.071 89.8507 139.075 90.014L139.972 88.4655C140.105 88.1821 140.316 87.9398 140.582 87.7651C141.136 87.4695 141.829 87.8183 142.301 88.235C142.774 88.6516 143.234 89.1688 143.868 89.2368L143.893 86.9199" fill="#CF6F80"/>
<path d="M148.058 143.664C147.274 143.28 134.316 145.239 134.316 145.239C134.316 145.239 132.182 144.648 127.023 143.826C121.864 143.005 121.535 138.117 121.535 138.117L120.971 128.332L122.712 126.854L130.169 131.583C130.169 131.583 130.285 133.973 130.169 134.405C130.096 134.7 129.901 135.052 129.919 135.291C129.925 135.356 129.953 135.418 129.998 135.466C130.043 135.514 130.103 135.546 130.169 135.557C130.676 135.682 137.572 136.763 137.572 136.763C137.572 136.763 153.558 135.702 157.543 140.921C157.859 141.304 158.098 141.741 158.247 142.21C159.235 145.777 148.768 144.004 148.058 143.664Z" fill="#FBBEBE"/>
<path opacity="0.1" d="M158.256 142.231C157.647 142.494 157.269 142.683 157.269 142.683C157.269 142.683 151.549 142.52 148.335 141.391C145.121 140.262 141.216 140.463 141.216 140.463C141.216 140.463 127.825 138.229 129.901 135.312C129.907 135.377 129.934 135.438 129.98 135.486C130.025 135.534 130.085 135.567 130.151 135.578C130.657 135.702 137.554 136.784 137.554 136.784C137.554 136.784 153.54 135.723 157.525 140.942C157.85 141.323 158.098 141.76 158.256 142.231Z" fill="black"/>
<path d="M163.818 125.013C163.818 125.013 164.604 130.395 164.659 130.832C164.714 131.269 164.998 136.539 164.659 137.139C164.321 137.739 163.818 138.714 163.818 138.714C163.818 138.714 164.379 139.854 162.135 140.292C159.891 140.729 157.256 142.03 157.256 142.03C157.256 142.03 151.533 141.867 148.338 140.726C145.143 139.586 141.216 139.801 141.216 139.801C141.216 139.801 124.218 136.973 131.511 133.521C138.804 130.07 143.963 134.745 143.963 134.745L152.094 134.257C152.094 134.257 155.125 132.46 155.967 132.626C156.561 132.699 157.164 132.605 157.705 132.354L157.763 126.644L163.818 125.013Z" fill="#FBBEBE"/>
<path opacity="0.1" d="M122.584 111.803L120.955 111.72L116.022 130.339C116.022 130.339 121.349 129.032 123.645 130.339C125.941 131.645 130.151 131.914 130.151 131.914L128.581 117.072L122.584 111.803Z" fill="black"/>
<path d="M122.584 111.475L120.955 111.392L116.022 130.01C116.022 130.01 121.349 128.704 123.645 130.01C125.941 131.317 130.151 131.586 130.151 131.586L128.581 116.744L122.584 111.475Z" fill="#47B4AC"/>
<path opacity="0.1" d="M159.894 115.553L162.135 116.044C162.135 116.044 167.858 124.023 168.306 124.469C168.754 124.916 166.172 126.538 165.107 126.538C164.043 126.538 158.827 127.129 157.311 128.495C155.796 129.86 156.427 122.989 156.427 122.832C156.427 122.676 158.308 118.34 158.308 118.34L159.894 115.553Z" fill="black"/>
<path d="M159.894 115.228L162.135 115.716C162.135 115.716 167.858 123.71 168.306 124.144C168.754 124.579 166.172 126.213 165.107 126.213C164.043 126.213 158.827 126.804 157.311 128.169C155.796 129.535 156.427 122.664 156.427 122.507C156.427 122.35 158.32 118 158.32 118L159.894 115.228Z" fill="#47B4AC"/>
<g opacity="0.1">
<path opacity="0.1" d="M144.808 84.7774C144.794 84.5508 144.799 84.3235 144.823 84.0977C144.359 84.7728 144.039 85.5316 143.884 86.3289V87.0145C143.884 87.0145 143.884 86.9997 143.884 86.9909V87.1534C143.884 87.6321 143.884 88.1138 143.868 88.5926H143.826V88.8142C143.826 88.7374 143.826 88.6635 143.811 88.5867C143.201 88.4921 142.765 87.9956 142.31 87.5996C141.856 87.2036 141.146 86.8254 140.591 87.1297C140.325 87.3044 140.114 87.5468 139.981 87.8301L139.076 89.3787C139.072 89.2157 139.032 89.0555 138.959 88.9087C138.885 88.7619 138.781 88.632 138.652 88.5276C137.826 88.8778 137.126 89.4582 136.641 90.1949C136.156 90.9316 135.908 91.7913 135.929 92.6649C135.096 92.159 134.399 91.4682 133.896 90.6496C133.393 89.831 133.098 88.9081 133.036 87.9572C132.983 89.019 133.223 90.0753 133.731 91.0171C134.24 91.959 134.999 92.7522 135.929 93.3151C135.909 92.4417 136.157 91.5822 136.642 90.8457C137.127 90.1091 137.826 89.5286 138.652 89.1777C138.781 89.283 138.885 89.4135 138.958 89.5607C139.031 89.7079 139.071 89.8685 139.076 90.0318L139.972 88.4832C140.105 88.1999 140.316 87.9576 140.582 87.7829C141.137 87.4873 141.829 87.836 142.301 88.2527C142.774 88.6694 143.234 89.1866 143.868 89.2546C143.868 88.498 143.877 87.7435 143.893 86.9909C144.042 86.2013 144.353 85.4487 144.808 84.7774Z" fill="#CF6F80"/>
<path opacity="0.1" d="M143.777 87.7534C143.792 87.5524 143.817 87.3515 143.847 87.1623L143.881 86.3467C143.789 86.81 143.754 87.2822 143.777 87.7534Z" fill="#CF6F80"/>
<path opacity="0.1" d="M153.028 91.2789C152.195 91.7104 151.134 91.3498 150.427 90.747C149.719 90.1441 149.241 89.3314 148.616 88.6458C148.57 88.7698 148.563 88.9045 148.597 89.0322C148.632 89.1599 148.705 89.2745 148.808 89.3609C148.747 89.3609 148.689 89.3314 148.631 89.3166C149.241 89.9963 149.726 90.7942 150.427 91.3853C151.128 91.9764 152.195 92.3487 153.028 91.9172C153.86 91.4858 154.098 90.4751 154.025 89.491C153.97 90.2652 153.683 90.9361 153.028 91.2789Z" fill="#CF6F80"/>
<path opacity="0.1" d="M148.613 89.3107C147.593 89.0414 146.683 88.4764 146.004 87.6915C145.325 86.9066 144.909 85.9393 144.814 84.9192C144.64 87.2391 146.445 89.5648 148.808 90.0111C148.707 89.9263 148.635 89.8145 148.6 89.6897C148.565 89.565 148.57 89.433 148.613 89.3107Z" fill="#CF6F80"/>
</g>
<path d="M247.928 137.611C247.928 137.611 246.727 137.449 246.727 135.755C246.727 134.062 245.867 130.891 245.867 130.891C245.867 130.891 245.123 125.374 244.096 124.499C243.068 123.624 241.748 118.488 241.748 118.488C241.748 118.488 241.522 115.701 241.062 115.101C240.602 114.501 239.98 113.032 239.062 110.937C238.144 108.842 234.327 107.406 234.327 107.406C234.327 107.406 227.409 103.517 225.448 102.249C225.269 102.144 225.101 102.021 224.948 101.882C224.607 101.451 223.119 101.442 223.119 101.442C222.963 100.487 222.814 99.3939 222.765 98.4039C222.765 98.2975 222.765 98.1912 222.765 98.0848C224.951 96.8323 226.598 94.8575 227.403 92.523C227.439 92.4107 227.47 92.2954 227.503 92.1802C227.637 92.1402 227.76 92.0731 227.866 91.9835C227.971 91.8938 228.055 91.7836 228.113 91.66C228.287 91.2788 228.293 90.8355 228.512 90.4779C228.768 90.0583 229.256 89.8337 229.64 89.5204C230.61 88.7196 230.86 87.3749 230.814 86.1544C230.784 85.1614 230.619 84.1626 230.683 83.1785C230.683 83.0957 230.683 83.013 230.701 82.9302C230.72 82.7854 230.741 82.6347 230.769 82.4929C230.918 81.7599 231.244 81.0684 231.427 80.3414C231.61 79.6144 231.628 78.7958 231.202 78.1693C230.576 77.2502 229.275 77.067 228.131 76.9872C226.835 76.8808 225.692 77.0168 224.847 75.9736C224.46 75.4287 224.023 74.9184 223.543 74.4487C223.372 74.295 221.713 73.3109 221.713 73.2488C220.09 72.5175 218.249 72.38 216.53 72.8617C215.667 73.104 214.859 73.5 213.984 73.698C212.106 74.1295 209.941 73.6626 208.343 74.7058C207.453 75.2968 206.92 76.2395 206.42 77.1527C206.013 77.9053 205.6 78.6589 205.182 79.4135C204.505 80.6517 203.822 81.9107 203.538 83.2819C203.479 83.5814 203.441 83.8846 203.425 84.1892C203.425 84.2985 203.425 84.4078 203.425 84.5172C203.425 84.5645 203.425 84.6118 203.425 84.659C203.425 84.7595 203.425 84.86 203.444 84.9546C203.462 85.0491 203.444 85.0757 203.465 85.1378C203.486 85.1999 203.493 85.3388 203.511 85.4333C203.529 85.5279 203.566 85.6963 203.602 85.8234C203.602 85.8796 203.639 85.9328 203.657 85.9889C203.675 86.0451 203.724 86.1869 203.764 86.2844C203.804 86.382 203.807 86.3879 203.831 86.4381C203.877 86.5415 203.932 86.642 203.986 86.7336C204.011 86.7721 204.029 86.8105 204.054 86.8489C204.137 86.9872 204.231 87.1196 204.334 87.2449C204.983 88.0339 205.947 88.5363 206.657 89.2752C206.657 89.3047 206.657 89.3343 206.657 89.3638C206.657 89.4436 206.657 89.5234 206.657 89.6061C206.701 91.254 207.159 92.8666 207.992 94.3036C208.826 95.7406 210.008 96.9585 211.438 97.8513C211.438 97.9636 211.453 98.0789 211.459 98.1941C211.519 99.0703 211.508 99.9497 211.426 100.824C211.302 100.683 211.146 100.57 210.971 100.495C210.796 100.419 210.605 100.382 210.414 100.387C210.283 100.381 210.151 100.392 210.023 100.419L209.996 100.399V100.425C209.325 100.585 208.499 101.262 207.709 103.186C207.709 103.186 205.307 105.81 203.477 105.7C201.648 105.591 197.017 108.434 197.017 108.434C197.017 108.434 192.498 111.274 191.528 114.17C190.986 115.813 190.336 117.42 189.58 118.981L183.979 130.129L182.952 138.994C182.952 138.994 183.522 142.928 183.409 143.531C183.296 144.134 185.754 149.542 185.754 149.542C185.754 149.542 193.873 163.366 197.19 164.076L197.428 163.916C197.571 163.986 197.721 164.039 197.876 164.076L198.559 163.612C198.602 164.131 198.583 164.654 198.504 165.169C198.05 166.537 198.678 175.444 199.477 177.191C200.276 178.938 199.992 201.841 199.992 201.841L199.88 203.859C199.88 203.859 199.88 203.924 199.907 204.037L199.88 204.515L199.962 204.557C200.047 205.199 200.019 205.85 199.88 206.483C199.593 207.37 199.477 209.873 199.477 209.873C199.477 209.873 197.19 224.023 198.276 226.866C199.361 229.709 200.279 232.824 200.279 232.824C200.279 232.824 201.422 236.37 200.334 236.961C199.245 237.552 196.163 238.601 196.791 240.076C197.37 241.441 199.569 245.1 199.895 245.635L199.867 245.93L199.419 250.638C199.492 251.26 199.666 251.866 199.934 252.435C200.425 253.463 201.377 254.524 203.194 254.409C203.499 254.388 203.849 254.356 204.194 254.311C207.514 253.877 211.6 252.441 211.6 252.441C211.388 252.311 211.194 252.155 211.023 251.977C210.86 251.823 210.731 251.64 210.643 251.436C210.556 251.233 210.512 251.015 210.514 250.795C210.563 249.935 208.908 245.853 208.493 244.846L208.398 244.621C208.398 244.621 212.173 240.794 211.545 237.407C211.545 237.407 207.368 235.043 208.743 233.743C210.118 232.442 212.575 228.719 212.575 228.719C212.575 228.719 212.688 214.785 212.575 212.707C212.458 211.262 212.528 209.809 212.786 208.381C212.832 208.168 212.886 207.958 212.944 207.748C214.848 208.027 216.77 208.168 218.695 208.171C219.398 208.171 220.109 208.157 220.829 208.13C220.829 208.327 220.838 208.539 220.856 208.768C221.015 212.22 221.311 218.275 221.552 220.524C221.893 223.745 223.78 232.437 223.78 232.437C223.78 232.437 220.18 234.674 224.408 240.197C224.408 240.197 224.408 242.195 224.128 242.487C223.828 243.435 223.587 244.399 223.405 245.375C223.228 246.412 223.155 247.467 223.442 248.011C224.128 249.317 228.244 249.211 228.244 249.211C228.277 249.203 228.311 249.198 228.345 249.196C229.122 249.116 229.907 249.188 230.655 249.406C231.403 249.624 232.099 249.985 232.702 250.467C234.266 251.684 240.199 251.152 243.416 250.762C244.675 250.605 245.516 250.467 245.516 250.467C245.557 250.328 245.571 250.184 245.559 250.041C245.526 249.276 244.907 247.597 240.711 246.099C240.711 246.099 236.766 243.528 236.821 241.288H236.732H236.278C236.565 241.279 236.766 241.279 236.766 241.279C236.766 241.279 235.22 235.814 235.851 235.368C236.482 234.922 234.592 228.867 234.592 228.867C234.592 228.867 233.51 218.701 233.449 217.991C233.453 217.38 233.549 216.773 233.735 216.189L233.449 210.612C233.449 210.612 233.394 208.759 233.449 208.156C233.443 207.633 233.4 207.111 233.321 206.593C233.293 206.386 233.266 206.17 233.235 205.957C234.714 205.594 235.674 205.26 235.674 205.26L235.504 185.859C236.76 183.495 236.992 178.305 236.985 174.629C236.985 172.265 236.876 170.515 236.876 170.515L238.592 167.799C238.592 167.799 238.989 164.548 238.361 163.836C238.083 163.514 238.208 163.18 238.437 162.905C238.557 162.81 238.684 162.723 238.818 162.645C238.803 162.625 238.79 162.603 238.778 162.58C238.898 162.483 239.025 162.395 239.159 162.317C239.159 162.317 238.55 161.401 239.095 161.014C239.608 161.351 240.065 161.62 240.412 161.812C240.388 162.028 240.364 162.152 240.364 162.152L240.51 161.856C240.845 162.039 241.05 162.152 241.05 162.152C241.05 162.152 243.739 156.959 243.681 156.197C243.623 155.434 245.51 152.207 245.51 152.207C245.51 152.207 245.739 150.511 246.77 149.802C247.8 149.092 247.568 143.953 247.568 143.953C247.568 143.953 247.855 141.276 248.541 140.185C249.227 139.095 247.928 137.611 247.928 137.611ZM196.474 135.333L196.526 136.571C196.221 136.095 196.001 135.755 196.001 135.755L196.474 135.333Z" fill="url(#paint1_linear_103_1005)"/>
<path d="M241.208 159.906L240.55 162.624C240.55 162.624 235.275 160.009 234.327 156.699C233.378 153.389 235.915 152.127 235.915 152.127L240.833 154.143L241.208 159.906Z" fill="white"/>
<path opacity="0.1" d="M241.208 159.906L240.55 162.624C240.55 162.624 235.275 160.009 234.327 156.699C233.378 153.389 235.915 152.127 235.915 152.127L240.833 154.143L241.208 159.906Z" fill="black"/>
<path d="M211.606 252.438C211.606 252.438 206.728 254.175 203.374 254.394C201.593 254.509 200.657 253.451 200.175 252.432C199.914 251.87 199.743 251.271 199.669 250.659L200.111 245.975L200.343 243.483L207.468 241.687L208.478 244.68L208.572 244.905C208.975 245.907 210.603 249.967 210.554 250.815C210.55 251.035 210.592 251.253 210.678 251.456C210.763 251.659 210.89 251.843 211.051 251.997C211.216 252.166 211.402 252.314 211.606 252.438Z" fill="white"/>
<path d="M244.913 250.056C244.925 250.199 244.911 250.343 244.87 250.481C244.87 250.481 234.437 252.166 232.302 250.481C231.702 249.989 231.003 249.624 230.249 249.409C229.495 249.193 228.703 249.133 227.924 249.231C227.924 249.231 223.887 249.338 223.213 248.049C222.933 247.508 223.006 246.459 223.18 245.428C223.357 244.458 223.594 243.498 223.887 242.555L224.049 242.431L225.009 241.683L236.254 241.361H236.339C236.284 243.59 240.153 246.146 240.153 246.146C244.273 247.624 244.879 249.293 244.913 250.056Z" fill="white"/>
<path opacity="0.1" d="M244.916 250.056C244.926 250.199 244.911 250.343 244.87 250.481C244.87 250.481 234.436 252.166 232.305 250.481C231.705 249.989 231.005 249.623 230.251 249.408C229.496 249.193 228.704 249.132 227.924 249.231C227.924 249.231 223.884 249.338 223.21 248.049C222.933 247.508 223.003 246.459 223.177 245.425C224.732 245.576 227.186 245.951 228.149 246.849C229.607 248.209 232.077 249.568 233.589 249.677C234.784 249.748 241.891 249.967 244.916 250.056Z" fill="black"/>
<path opacity="0.1" d="M211.606 252.438C211.606 252.438 206.728 254.175 203.374 254.394C201.593 254.509 200.657 253.451 200.175 252.432C201.419 252.837 203.142 253.259 204.047 252.872C205.121 252.408 208.926 252.113 211.06 251.986C211.221 252.159 211.404 252.311 211.606 252.438Z" fill="black"/>
<path d="M218.844 112.391C214.82 110.875 209.642 105.866 210.935 103.525C211.221 102.934 211.391 102.297 211.438 101.646C211.522 100.762 211.534 99.8723 211.475 98.9862C211.384 97.5339 211.204 96.0882 210.935 94.6567C210.935 94.6567 223.5 94.9316 222.768 96.7254C222.555 97.2544 222.518 98.1676 222.579 99.1871C222.64 100.207 222.79 101.368 222.948 102.346C223.165 103.685 223.387 104.711 223.387 104.711C223.387 104.711 222.616 105.754 222.168 105.81C221.719 105.866 224.619 114.563 218.844 112.391Z" fill="#CF6F80"/>
<path opacity="0.1" d="M208.56 244.89L208.465 244.99C204.709 240.587 200.166 246.078 200.166 246.078L200.099 245.96L200.331 243.468L207.456 241.672L208.465 244.665L208.56 244.89Z" fill="black"/>
<path opacity="0.1" d="M236.345 241.672C236.345 241.672 233.601 241.619 232.138 242.872C230.674 244.125 223.6 243.14 223.905 242.872C223.994 242.735 224.049 242.58 224.064 242.419L225.024 241.672L236.269 241.35C236.312 241.556 236.345 241.672 236.345 241.672Z" fill="black"/>
<path d="M213.234 207.092C213.03 207.582 212.875 208.09 212.771 208.608C212.516 210.029 212.446 211.474 212.56 212.911C212.673 214.98 212.56 228.843 212.56 228.843C212.56 228.843 210.148 232.54 208.801 233.843C207.453 235.146 211.545 237.487 211.545 237.487C212.155 240.859 208.459 244.665 208.459 244.665C204.703 240.262 200.16 245.75 200.16 245.75C200.16 245.75 197.69 241.613 197.075 240.135C196.459 238.657 199.486 237.638 200.55 237.035C201.614 236.432 200.495 232.898 200.495 232.898C200.495 232.898 199.599 229.797 198.532 226.969C197.465 224.141 199.709 210.065 199.709 210.065C199.709 210.065 199.825 207.562 200.102 206.69C200.241 206.061 200.268 205.414 200.184 204.775C200.166 204.56 200.145 204.382 200.13 204.258C200.114 204.134 200.102 204.081 200.102 204.081L200.145 204.01L201.669 201.256C201.669 201.256 213.966 205.358 213.234 207.092Z" fill="#47B4AC"/>
<path d="M236.345 241.347C236.345 241.347 233.601 241.29 232.138 242.529C230.674 243.767 223.601 242.801 223.905 242.529C224.21 242.257 224.183 240.247 224.183 240.247C220.033 234.753 223.573 232.525 223.573 232.525C223.573 232.525 221.722 223.881 221.387 220.675C221.152 218.437 220.863 212.4 220.707 208.981C220.64 207.503 220.6 206.483 220.6 206.483L223.96 205.836L224.396 205.754L232.574 204.161C232.574 204.161 232.799 205.638 232.952 206.847C233.029 207.363 233.071 207.883 233.077 208.404C233.025 208.995 233.077 210.848 233.077 210.848L233.357 216.392C233.176 216.974 233.082 217.578 233.077 218.186C233.135 218.896 234.199 229.005 234.199 229.005C234.199 229.005 236.049 235.04 235.418 235.475C234.787 235.909 236.345 241.347 236.345 241.347Z" fill="#47B4AC"/>
<path opacity="0.1" d="M222.768 96.7342C222.555 97.2632 222.518 98.1764 222.579 99.1959C220.896 100.178 218.961 100.68 216.997 100.645C215.033 100.609 213.119 100.038 211.475 98.995C211.384 97.5427 211.204 96.097 210.935 94.6655C210.935 94.6655 223.5 94.9404 222.768 96.7342Z" fill="black"/>
<path d="M227.619 90.2091C227.652 92.8904 226.585 95.4746 224.652 97.3934C222.72 99.3121 220.08 100.408 217.314 100.44C214.547 100.472 211.881 99.438 209.901 97.5647C207.922 95.6915 206.791 93.1327 206.758 90.4514C206.758 90.3687 206.758 90.2918 206.758 90.2091C206.758 87.527 207.857 84.9547 209.814 83.0582C211.771 81.1616 214.424 80.0962 217.192 80.0962C219.959 80.0962 222.613 81.1616 224.569 83.0582C226.526 84.9547 227.625 87.527 227.625 90.2091H227.619Z" fill="#CF6F80"/>
<path opacity="0.1" d="M218.844 112.391C214.82 110.875 209.642 105.866 210.935 103.525C211.221 102.934 211.391 102.297 211.438 101.646L216.948 106.037L220.356 108.747L222.948 102.355C223.165 103.694 223.387 104.719 223.387 104.719C223.387 104.719 222.616 105.762 222.168 105.819C221.719 105.875 224.619 114.563 218.844 112.391Z" fill="black"/>
<path d="M233.092 131.798L228.491 206.714L222.491 207.095L206.95 163.656L209.499 112.084L210.039 101.188L216.948 106.687L220.356 109.397L223.024 102.816L227.985 107.007L233.092 131.798Z" fill="#47B4AC"/>
<path opacity="0.1" d="M213.234 207.092C213.03 207.582 212.875 208.09 212.771 208.608C208.4 207.956 204.156 206.672 200.179 204.799L200.096 204.758L200.124 204.282V204.034L201.648 201.279C201.648 201.279 213.966 205.358 213.234 207.092Z" fill="black"/>
<path opacity="0.1" d="M224.061 208.62C222.945 208.805 221.819 208.931 220.689 208.996C220.622 207.518 220.582 206.498 220.582 206.498L223.96 205.836L224.061 208.62Z" fill="black"/>
<path opacity="0.1" d="M232.964 206.847C230.796 207.394 227.445 208.008 224.451 207.624L224.408 205.754L232.586 204.161C232.586 204.161 232.802 205.626 232.964 206.847Z" fill="black"/>
<path opacity="0.1" d="M224.396 207.967C211.896 210.036 200.447 204.105 200.447 204.105L200.556 202.095C200.556 202.095 200.84 179.313 200.053 177.566C199.267 175.82 198.654 166.975 199.099 165.624C199.544 164.274 197.474 143.882 197.474 143.882L197.139 135.608L184.854 130.77L190.342 119.679C191.083 118.124 191.721 116.525 192.251 114.891C193.205 112.01 197.636 109.182 197.636 109.182C197.636 109.182 202.178 106.357 203.974 106.463C205.77 106.569 208.124 103.963 208.124 103.963C209.862 99.6689 211.435 101.599 211.435 101.599C211.435 101.806 211.435 101.599 211.35 102.234C210.74 106.948 221.21 121.842 221.359 122.108L222.369 145.65L223.378 175.442L224.396 207.967Z" fill="black"/>
<path d="M224.061 207.967C211.56 210.036 200.108 204.105 200.108 204.105L200.221 202.095C200.221 202.095 200.502 179.313 199.715 177.566C198.928 175.82 198.315 166.966 198.764 165.604C199.212 164.241 197.129 143.871 197.129 143.871L196.791 135.596L184.51 130.758L189.998 119.667C190.737 118.113 191.375 116.515 191.907 114.883C192.861 112.01 197.306 109.179 197.306 109.179C197.306 109.179 201.849 106.354 203.642 106.46C205.435 106.566 207.801 103.963 207.801 103.963C209.542 99.6689 211.46 101.599 211.46 101.599C211.46 101.806 211.277 101.894 211.374 102.234C212.716 106.806 220.899 121.842 221.049 122.108L222.058 145.65L223.046 175.456L224.061 207.967Z" fill="white"/>
<path opacity="0.1" d="M220.692 122.773C219.347 122.229 212.225 114.347 212.225 114.347V112.554C211.966 111.963 210.423 112.323 209.176 112.737L209.713 101.841L210.322 102.331C211.655 106.9 220.546 122.51 220.692 122.773Z" fill="black"/>
<path d="M221.03 122.123C219.683 121.576 212.56 113.697 212.56 113.697V111.901C212.301 111.31 210.761 111.67 209.511 112.084L210.039 101.2L210.649 101.687C211.993 106.25 220.881 121.857 221.03 122.123Z" fill="white"/>
<path opacity="0.1" d="M200.447 161.428C200.614 161.428 209.139 160.559 209.139 160.559C209.139 160.559 214.301 170.4 213.963 172.791C213.624 175.181 213.012 177.303 210.935 176.928C208.859 176.553 199.761 177.224 199.761 177.224L200.447 161.428Z" fill="black"/>
<path d="M200.108 160.775C200.279 160.775 208.804 159.906 208.804 159.906C208.804 159.906 213.963 169.762 213.627 172.126C213.292 174.49 212.673 176.638 210.6 176.263C208.527 175.888 199.422 176.559 199.422 176.559L200.108 160.775Z" fill="white"/>
<path d="M206.532 156.167C206.532 156.167 214.356 160.245 214.524 161.487C214.692 162.728 210.542 160.943 209.645 160.724C209.055 160.588 208.455 160.497 207.85 160.452L201.871 160.609L206.532 156.167Z" fill="#CF6F80"/>
<path opacity="0.1" d="M218.506 123.281C218.96 123.281 219.329 122.924 219.329 122.483C219.329 122.043 218.96 121.686 218.506 121.686C218.051 121.686 217.682 122.043 217.682 122.483C217.682 122.924 218.051 123.281 218.506 123.281Z" fill="black"/>
<path d="M218.506 122.956C218.96 122.956 219.329 122.599 219.329 122.158C219.329 121.718 218.96 121.36 218.506 121.36C218.051 121.36 217.682 121.718 217.682 122.158C217.682 122.599 218.051 122.956 218.506 122.956Z" fill="#3F3D56"/>
<path opacity="0.1" d="M220.021 157.822C220.476 157.822 220.844 157.465 220.844 157.024C220.844 156.584 220.476 156.227 220.021 156.227C219.566 156.227 219.198 156.584 219.198 157.024C219.198 157.465 219.566 157.822 220.021 157.822Z" fill="black"/>
<path d="M220.021 157.494C220.476 157.494 220.844 157.137 220.844 156.696C220.844 156.256 220.476 155.898 220.021 155.898C219.566 155.898 219.198 156.256 219.198 156.696C219.198 157.137 219.566 157.494 220.021 157.494Z" fill="#3F3D56"/>
<path opacity="0.1" d="M219.329 140.552C219.784 140.552 220.152 140.195 220.152 139.754C220.152 139.313 219.784 138.956 219.329 138.956C218.874 138.956 218.506 139.313 218.506 139.754C218.506 140.195 218.874 140.552 219.329 140.552Z" fill="black"/>
<path d="M219.329 140.227C219.784 140.227 220.152 139.869 220.152 139.429C220.152 138.988 219.784 138.631 219.329 138.631C218.874 138.631 218.506 138.988 218.506 139.429C218.506 139.869 218.874 140.227 219.329 140.227Z" fill="#3F3D56"/>
<path d="M238.306 160.287C238.306 160.287 238.867 161.103 238.306 161.469C237.745 161.835 238.361 162.775 238.361 162.775C238.361 162.775 236.961 163.567 237.577 164.285C238.193 165.004 237.803 168.228 237.803 168.228L236.12 170.944C236.12 170.944 236.22 172.684 236.226 175.037C236.226 178.707 236.004 183.867 234.772 186.219L234.937 205.52C234.937 205.52 229.043 207.609 224.11 206.971L223.378 176C223.378 176 224.445 158.437 224.838 155.068C225.069 153.319 225.162 151.556 225.119 149.793C225.119 149.793 224.951 144.521 224.387 142.077C224.387 142.077 223.777 131.473 223.716 128.539C223.689 127.135 223.765 123.039 223.851 119.144C223.945 114.885 224.052 110.869 224.052 110.869L222.939 102.331C222.939 102.331 224.052 102.225 224.387 102.657C224.537 102.793 224.701 102.914 224.875 103.02C226.799 104.279 233.586 108.15 233.586 108.15C233.586 108.15 237.342 109.598 238.242 111.673C239.141 113.748 239.766 115.219 240.202 115.81C240.638 116.401 240.876 119.179 240.876 119.179C240.876 119.179 242.169 124.292 243.178 125.158C244.187 126.024 244.913 131.52 244.913 131.52L235.995 138.318C235.995 138.318 235.211 149.624 235.043 150.062C234.876 150.499 238.306 160.287 238.306 160.287Z" fill="white"/>
<path d="M238.644 160.287C238.644 160.287 239.202 161.103 238.644 161.469C238.086 161.836 238.696 162.775 238.696 162.775C238.696 162.775 237.296 163.567 237.912 164.285C238.528 165.004 238.138 168.228 238.138 168.228L236.461 170.944C236.461 170.944 236.562 172.684 236.571 175.037C236.571 178.707 236.348 183.867 235.116 186.219L235.284 205.52C235.284 205.52 229.39 207.61 224.457 206.971L223.729 176C223.729 176 224.793 158.437 225.189 155.068C225.419 153.319 225.512 151.556 225.466 149.793C225.466 149.793 225.299 144.521 224.738 142.077C224.738 142.077 224.128 131.473 224.064 128.539C224.036 127.135 224.113 123.039 224.198 119.144C224.293 114.885 224.399 110.869 224.399 110.869L222.93 102.216C222.93 102.216 224.399 102.216 224.738 102.657C224.887 102.794 225.05 102.916 225.226 103.02C227.146 104.279 233.933 108.15 233.933 108.15C233.933 108.15 237.681 109.599 238.595 111.673C239.51 113.748 240.12 115.219 240.556 115.81C240.992 116.402 241.23 119.179 241.23 119.179C241.23 119.179 242.522 124.292 243.532 125.158C244.541 126.024 245.27 131.521 245.27 131.521L236.351 138.318C236.351 138.318 235.568 149.625 235.397 150.062C235.226 150.499 238.644 160.287 238.644 160.287Z" fill="white"/>
<path opacity="0.1" d="M227.964 113.378L228.772 115.654L224.531 119.791C224.625 115.533 224.732 111.516 224.732 111.516L223.262 102.866C223.262 102.866 224.732 102.866 225.07 103.307C225.219 103.444 225.383 103.566 225.558 103.67L229.162 113.745L227.964 113.378Z" fill="black"/>
<path d="M227.619 112.725L228.427 114.998L224.189 119.135C224.281 114.876 224.39 110.86 224.39 110.86L222.918 102.207C222.918 102.207 224.39 102.207 224.726 102.648C224.875 102.784 225.039 102.906 225.214 103.011L228.839 113.094L227.619 112.725Z" fill="white"/>
<path opacity="0.1" d="M227.619 90.2091C227.62 91.2739 227.447 92.3322 227.107 93.3446C227.049 93.3539 226.991 93.3519 226.934 93.3387C226.878 93.3255 226.824 93.3014 226.778 93.2678C226.695 90.608 225.348 88.1079 223.686 85.9831C223.219 85.3422 222.653 84.7741 222.009 84.2986C221.357 83.8243 220.546 83.602 219.734 83.675C218.82 83.7962 218.012 84.399 217.088 84.4759C215.868 84.5734 214.777 83.7548 213.566 83.7164C213.074 83.7203 212.589 83.8263 212.142 84.0271C211.696 84.2279 211.299 84.519 210.978 84.8808C210.341 85.6084 209.869 86.457 209.591 87.372C209.111 88.7605 208.85 90.2111 208.816 91.6749C208.801 92.5024 208.719 93.5397 207.926 93.8411C207.986 93.233 207.915 92.6194 207.717 92.0394C207.519 91.4594 207.199 90.9257 206.776 90.4721L206.758 90.4514C206.758 90.3687 206.758 90.2918 206.758 90.2091C206.758 87.527 207.857 84.9547 209.814 83.0582C211.771 81.1617 214.424 80.0962 217.192 80.0962C219.959 80.0962 222.613 81.1617 224.569 83.0582C226.526 84.9547 227.625 87.527 227.625 90.2091H227.619Z" fill="black"/>
<path d="M221.521 74.1532C219.937 73.4308 218.135 73.2942 216.454 73.769C215.609 74.0114 214.813 74.4044 213.957 74.6024C212.127 75.0309 209.993 74.5669 208.423 75.6042C207.551 76.1953 207.026 77.1292 206.539 78.0394L205.319 80.2883C204.654 81.5207 203.984 82.7737 203.706 84.1301C203.429 85.4866 203.596 87.0056 204.484 88.099C205.127 88.8911 206.084 89.3905 206.786 90.1382C207.207 90.594 207.526 91.1294 207.724 91.7108C207.921 92.2921 207.992 92.9068 207.932 93.516C208.725 93.2205 208.804 92.1773 208.822 91.3498C208.857 89.886 209.118 88.4355 209.597 87.047C209.875 86.1319 210.347 85.2833 210.984 84.5557C211.305 84.1935 211.702 83.902 212.148 83.7007C212.594 83.4994 213.08 83.3929 213.573 83.3884C214.792 83.4298 215.887 84.2483 217.094 84.1479C218.009 84.074 218.82 83.4711 219.741 83.35C220.552 83.2755 221.364 83.4979 222.015 83.9735C222.66 84.4476 223.224 85.0159 223.689 85.658C225.354 87.7858 226.704 90.2741 226.784 92.9427C227.128 93.185 227.625 92.8659 227.796 92.4876C227.967 92.1093 227.973 91.666 228.189 91.3055C228.439 90.8888 228.918 90.6642 229.293 90.351C230.244 89.556 230.482 88.2173 230.445 87.0026C230.409 85.788 230.165 84.5557 230.403 83.3618C230.546 82.6318 230.869 81.9433 231.046 81.2192C231.223 80.4952 231.244 79.6825 230.827 79.0589C230.217 78.1458 228.933 77.9625 227.814 77.8768C226.543 77.7704 225.406 77.9064 224.595 76.8691C224.213 76.3285 223.784 75.8203 223.314 75.3501C223.146 75.1935 221.521 74.2182 221.521 74.1532Z" fill="#512E4E"/>
<path opacity="0.1" d="M188.373 136.473L185.19 130.767L184.18 139.573C184.18 139.573 184.741 143.486 184.629 144.086C184.516 144.686 186.928 150.065 186.928 150.065C186.928 150.065 194.894 163.821 198.148 164.528L209.124 156.915L206.209 153.327C206.209 153.327 205.2 152.946 204.947 153.327C204.947 153.327 199.532 144.302 198.974 143.652C198.416 143.002 198.523 141.692 198.523 141.692C198.523 141.692 197.681 140.824 197.962 140.008C198.242 139.192 196.352 136.367 196.352 136.367L198.09 134.792L188.373 136.473Z" fill="black"/>
<path d="M185.357 130.114L184.516 130.767L183.507 139.574C183.507 139.574 184.068 143.486 183.955 144.086C183.842 144.686 186.257 150.065 186.257 150.065C186.257 150.065 194.221 163.821 197.474 164.528L208.469 156.915L205.551 153.327C205.551 153.327 204.541 152.946 204.288 153.327C204.288 153.327 198.876 144.302 198.315 143.652C197.754 143.002 197.867 141.692 197.867 141.692C197.867 141.692 197.026 140.824 197.306 140.008C197.587 139.192 195.678 136.367 195.678 136.367L197.416 134.792L185.357 130.114Z" fill="white"/>
<path opacity="0.1" d="M237.577 164.625C238.187 165.343 237.803 168.571 237.803 168.571L236.12 171.269C236.12 171.269 236.22 173.012 236.226 175.365L233.397 176.222C233.141 176.299 232.869 176.316 232.605 176.271C232.341 176.226 232.091 176.121 231.878 175.963C231.664 175.806 231.492 175.601 231.377 175.367C231.261 175.132 231.205 174.874 231.214 174.614L231.705 159.365L238.306 161.809C237.745 162.187 238.361 163.115 238.361 163.115C238.361 163.115 236.961 163.907 237.577 164.625Z" fill="black"/>
<path d="M237.912 164.3C238.522 165.015 238.138 168.242 238.138 168.242L236.461 170.944C236.461 170.944 236.562 172.684 236.571 175.037L233.689 175.908C233.439 175.984 233.174 176.001 232.916 175.958C232.657 175.914 232.414 175.811 232.205 175.658C231.996 175.504 231.828 175.304 231.715 175.075C231.602 174.845 231.547 174.593 231.555 174.339L232.046 159.037L238.644 161.487C238.08 161.865 238.696 162.793 238.696 162.793C238.696 162.793 237.296 163.582 237.912 164.3Z" fill="white"/>
<path d="M240.102 157.024C240.102 157.024 239.653 159.799 238.531 159.962C237.409 160.124 236.906 164.451 235.787 164.3C234.668 164.15 235.409 160.275 235.449 159.525C235.488 158.774 234.229 155.665 235.168 154.959C236.107 154.252 239.095 154.959 239.095 154.959L240.102 157.024Z" fill="#CF6F80"/>
<path opacity="0.1" d="M242.474 135.658L244.587 131.521C244.587 131.521 245.431 134.674 245.431 136.358C245.431 138.043 246.608 138.208 246.608 138.208C246.608 138.208 247.898 139.686 247.218 140.765C246.538 141.843 246.267 144.515 246.267 144.515C246.267 144.515 246.489 149.624 245.48 150.331C244.471 151.037 244.245 152.724 244.245 152.724C244.245 152.724 242.394 155.931 242.452 156.693C242.51 157.456 239.873 162.619 239.873 162.619C239.873 162.619 241.163 156.203 233.647 153.431C233.647 153.431 233.589 151.256 234.15 150.659C234.711 150.062 235.586 149.772 235.037 146.77C234.488 143.767 234.879 140.147 234.879 139.423C234.879 138.699 236.562 134.186 236.562 134.186L242.474 135.658Z" fill="black"/>
<path d="M243.413 130.929L245.26 131.52C245.26 131.52 246.105 134.674 246.105 136.358C246.105 138.043 247.282 138.208 247.282 138.208C247.282 138.208 248.571 139.686 247.891 140.765C247.211 141.843 246.937 144.515 246.937 144.515C246.937 144.515 247.163 149.624 246.154 150.331C245.144 151.037 244.934 152.724 244.934 152.724C244.934 152.724 243.083 155.931 243.141 156.693C243.199 157.456 240.559 162.619 240.559 162.619C240.559 162.619 241.848 156.203 234.333 153.431C234.333 153.431 234.278 151.256 234.839 150.659C235.4 150.062 236.275 149.772 235.726 146.77C235.177 143.767 235.568 140.147 235.568 139.423C235.568 138.699 237.251 134.186 237.251 134.186L243.413 130.929Z" fill="white"/>
<path opacity="0.1" d="M202.593 238.167C202.593 238.167 205.538 236.373 207.471 237.676C209.404 238.98 202.593 238.167 202.593 238.167Z" fill="black"/>
<path opacity="0.1" d="M225.485 232.62C225.485 232.62 251.95 232.295 274.174 234.579C296.398 236.863 225.485 232.62 225.485 232.62Z" fill="black"/>
<g opacity="0.1">
<path opacity="0.1" d="M276.401 89.701C276.026 90.0172 275.544 90.2389 275.294 90.6556C275.081 91.0131 275.074 91.4564 274.904 91.8377C274.733 92.2189 274.236 92.5351 273.888 92.2928C273.809 89.633 272.458 87.1358 270.797 85.0081C270.332 84.3668 269.767 83.7995 269.123 83.3265C268.471 82.8499 267.659 82.6265 266.845 82.7C265.931 82.8212 265.126 83.424 264.202 83.5009C262.982 83.5984 261.888 82.7798 260.677 82.7414C260.186 82.745 259.7 82.8508 259.254 83.0517C258.808 83.2525 258.412 83.5438 258.092 83.9058C257.455 84.6334 256.983 85.482 256.705 86.397C256.225 87.7856 255.964 89.2361 255.93 90.6999C255.912 91.5244 255.833 92.5528 255.046 92.8602C255.064 93.0795 255.064 93.2999 255.046 93.5192C255.842 93.2237 255.921 92.1805 255.939 91.353C255.973 89.8892 256.235 88.4387 256.714 87.0501C256.992 86.1351 257.464 85.2865 258.101 84.5589C258.421 84.1969 258.818 83.9055 259.263 83.7042C259.709 83.5029 260.195 83.3963 260.686 83.3915C261.906 83.4329 263.004 84.2515 264.211 84.151C265.126 84.0772 265.937 83.4743 266.854 83.3531C267.667 83.2788 268.479 83.5011 269.132 83.9767C269.777 84.4508 270.341 85.019 270.806 85.6612C272.468 87.789 273.818 90.2773 273.898 92.9459C274.245 93.1882 274.742 92.869 274.913 92.4908C275.084 92.1125 275.09 91.6692 275.303 91.3087C275.553 90.892 276.035 90.6674 276.41 90.3541C277.361 89.5592 277.599 88.2204 277.562 87.0058C277.562 86.9674 277.562 86.9319 277.562 86.8935C277.501 87.9515 277.212 89.0243 276.401 89.701Z" fill="black"/>
<path opacity="0.1" d="M253.89 89.4941C253.192 88.7465 252.235 88.2441 251.591 87.4521C251.048 86.7529 250.738 85.9094 250.704 85.0347C250.608 86.1284 250.923 87.2188 251.591 88.1052C252.235 88.8972 253.192 89.3966 253.89 90.1443C254.565 90.8752 254.97 91.8023 255.043 92.7804C255.089 92.1856 255.01 91.588 254.812 91.0234C254.614 90.4587 254.301 89.9386 253.89 89.4941Z" fill="black"/>
<path opacity="0.1" d="M278.154 80.5691C277.974 81.2932 277.654 81.9818 277.507 82.7117C277.419 83.2053 277.388 83.7068 277.413 84.2071C277.423 83.9244 277.454 83.6429 277.507 83.3648C277.654 82.6349 277.974 81.9463 278.154 81.2223C278.257 80.8227 278.291 80.4092 278.254 79.9988C278.235 80.191 278.201 80.3815 278.154 80.5691Z" fill="black"/>
</g>
<path opacity="0.1" d="M302.926 247.91C319.334 247.91 332.635 245.84 332.635 243.285C332.635 240.731 319.334 238.66 302.926 238.66C286.518 238.66 273.217 240.731 273.217 243.285C273.217 245.84 286.518 247.91 302.926 247.91Z" fill="#47B4AC"/>
<path d="M303.884 154.684H301.972V196.403H303.884V154.684Z" fill="#535461"/>
<path d="M315.9 196.279L315.778 198.159L315.61 200.818L315.54 201.924L315.369 204.583L315.296 205.689L315.128 208.348L313.198 238.513C313.116 239.81 312.526 241.029 311.549 241.92C310.571 242.81 309.28 243.306 307.939 243.306H297.917C296.572 243.307 295.277 242.808 294.299 241.913C293.321 241.018 292.734 239.794 292.657 238.492L290.727 208.328L290.56 205.668L290.49 204.563L290.316 201.903L290.246 200.798L290.078 198.138L289.956 196.258C289.935 195.898 289.99 195.538 290.117 195.198C290.244 194.859 290.441 194.549 290.696 194.286C290.951 194.023 291.259 193.813 291.6 193.669C291.942 193.525 292.31 193.45 292.682 193.448H313.177C313.551 193.45 313.92 193.526 314.263 193.672C314.605 193.817 314.914 194.029 315.169 194.294C315.424 194.559 315.62 194.872 315.746 195.213C315.871 195.555 315.924 195.917 315.9 196.279Z" fill="#3F3D56"/>
<path d="M315.778 198.156L315.607 200.81H290.246L290.075 198.156H315.778Z" fill="#9D9CB5"/>
<path d="M315.537 201.915L315.369 204.569H290.486L290.316 201.915H315.537Z" fill="#9D9CB5"/>
<path d="M315.296 205.677L315.128 208.328H290.727L290.557 205.677H315.296Z" fill="#9D9CB5"/>
<path d="M287.17 170.323C298.304 178.131 302.942 190.342 302.942 190.342C302.942 190.342 289.527 189.896 278.389 182.088C267.251 174.28 262.607 162.078 262.607 162.078C262.607 162.078 276.023 162.515 287.17 170.323Z" fill="#47B4AC"/>
<path d="M262.607 162.078C262.607 162.078 276.532 169.569 280.999 175.773C285.465 181.976 302.93 190.348 302.93 190.348" stroke="#535461" stroke-width="2" stroke-miterlimit="10"/>
<path d="M294.343 154.595C300.405 158.842 302.929 165.488 302.929 165.488C302.929 165.488 295.612 165.246 289.566 160.999C283.52 156.753 280.98 150.103 280.98 150.103C280.98 150.103 288.285 150.346 294.343 154.595Z" fill="#47B4AC"/>
<path d="M280.98 150.103C280.98 150.103 288.559 154.182 290.993 157.556C293.426 160.931 302.929 165.488 302.929 165.488" stroke="#535461" stroke-width="2" stroke-miterlimit="10"/>
<path d="M311.735 165.152C304.774 172.566 303.301 182.257 303.301 182.257C303.301 182.257 313.116 179.922 320.071 172.504C327.025 165.086 328.504 155.399 328.504 155.399C328.504 155.399 318.695 157.737 311.735 165.152Z" fill="#47B4AC"/>
<path d="M328.51 155.402C328.51 155.402 319.442 163.003 317.137 168.24C314.832 173.476 303.301 182.257 303.301 182.257" stroke="#535461" stroke-width="2" stroke-miterlimit="10"/>
</g>
<defs>
<linearGradient id="paint0_linear_103_1005" x1="141.938" y1="246.929" x2="141.938" y2="76.219" gradientUnits="userSpaceOnUse">
<stop stop-color="#808080" stop-opacity="0.25"/>
<stop offset="0.54" stop-color="#808080" stop-opacity="0.12"/>
<stop offset="1" stop-color="#808080" stop-opacity="0.1"/>
</linearGradient>
<linearGradient id="paint1_linear_103_1005" x1="57968.4" y1="159983" x2="57968.4" y2="48090.6" gradientUnits="userSpaceOnUse">
<stop stop-color="#808080" stop-opacity="0.25"/>
<stop offset="0.54" stop-color="#808080" stop-opacity="0.12"/>
<stop offset="1" stop-color="#808080" stop-opacity="0.1"/>
</linearGradient>
<clipPath id="clip0_103_1005">
<rect width="356" height="255" fill="white"/>
</clipPath>
</defs>
</svg>
