<svg width="22" height="22" viewBox="0 0 22 22" fill="none" xmlns="http://www.w3.org/2000/svg">
<path d="M11.5778 11.7228H10.4222V1H11.5778V11.7228ZM1 11C1 8.59819 1.84534 6.39513 3.25653 4.67074L4.06249 5.47671C2.85518 6.99153 2.13269 8.91224 2.13269 11C2.13269 15.8969 6.10306 19.8673 11 19.8673C15.8969 19.8673 19.8673 15.8969 19.8673 11C19.8673 8.91225 19.1448 6.99153 17.9375 5.4767L18.7435 4.67074C20.1547 6.39513 21 8.5982 21 11C21 16.5229 16.5229 21 11 21C5.47715 21 1 16.5229 1 11Z" stroke="white" stroke-width="2"/>
</svg>
