<?xml version="1.0" encoding="UTF-8"?>
<!DOCTYPE svg PUBLIC "-//W3C//DTD SVG 1.1//EN" "http://www.w3.org/Graphics/SVG/1.1/DTD/svg11.dtd">
<svg xmlns="http://www.w3.org/2000/svg" version="1.1" width="862px" height="576px" style="shape-rendering:geometricPrecision; text-rendering:geometricPrecision; image-rendering:optimizeQuality; fill-rule:evenodd; clip-rule:evenodd" xmlns:xlink="http://www.w3.org/1999/xlink">
<g><path style="opacity:0.947" fill="#575757" d="M 558.5,11.5 C 574.315,10.4807 581.481,17.814 580,33.5C 575.596,44.1165 567.763,47.6165 556.5,44C 546.815,36.8493 544.982,28.016 551,17.5C 553.114,14.8792 555.614,12.8792 558.5,11.5 Z"/></g>
<g><path style="opacity:0.98" fill="#575757" d="M 502.5,13.5 C 528.133,12.6329 539.967,24.9663 538,50.5C 531.592,70.2946 518.092,77.4613 497.5,72C 493.862,70.3308 490.528,68.3308 487.5,66C 484.946,62.7709 482.779,59.2709 481,55.5C 475.39,34.3752 482.556,20.3752 502.5,13.5 Z"/></g>
<g><path style="opacity:0.958" fill="#575757" d="M 601.5,18.5 C 624.652,18.1329 632.485,28.7996 625,50.5C 616.062,59.4321 605.895,60.9321 594.5,55C 583.833,44 583.833,33 594.5,22C 596.994,20.9683 599.328,19.8017 601.5,18.5 Z"/></g>
<g><path style="opacity:0.972" fill="#575757" d="M 318.5,21.5 C 347.294,18.7935 360.127,31.7935 357,60.5C 354.291,67.7688 349.791,73.6021 343.5,78C 346.833,78.3333 350.167,78.6667 353.5,79C 356.656,81.157 359.489,83.657 362,86.5C 364,93.1667 364,99.8333 362,106.5C 357.27,114.193 350.437,117.026 341.5,115C 331.184,110.112 327.35,101.945 330,90.5C 331.385,86.7843 333.552,83.6177 336.5,81C 308.223,83.0495 296.057,69.8829 300,41.5C 301.093,36.1409 303.593,31.6409 307.5,28C 311.198,25.8205 314.864,23.6538 318.5,21.5 Z"/></g>
<g><path style="opacity:0.946" fill="#575757" d="M 234.5,22.5 C 249.958,22.8356 255.125,30.5023 250,45.5C 244.366,50.7265 237.866,51.8932 230.5,49C 225.309,43.3099 224.142,36.8099 227,29.5C 228.742,26.2543 231.242,23.921 234.5,22.5 Z"/></g>
<g><path style="opacity:0.951" fill="#575757" d="M 268.5,23.5 C 287.152,23.3343 293.986,32.3343 289,50.5C 281.476,59.2399 272.642,60.7399 262.5,55C 252.915,42.2306 254.915,31.7306 268.5,23.5 Z"/></g>
<g><path style="opacity:0.902" fill="#575757" d="M 406.5,25.5 C 410.753,24.986 414.587,25.986 418,28.5C 418.667,32.1667 418.667,35.8333 418,39.5C 412.44,44.9509 407.106,44.6176 402,38.5C 400.379,32.9227 401.879,28.5894 406.5,25.5 Z"/></g>
<g><path style="opacity:0.977" fill="#575757" d="M 435.5,32.5 C 462.599,30.0999 475.432,42.4332 474,69.5C 468.261,87.2916 456.094,94.7916 437.5,92C 418.913,85.3455 411.746,72.1789 416,52.5C 419.318,42.6823 425.818,36.0156 435.5,32.5 Z"/></g>
<g><path style="opacity:0.973" fill="#575757" d="M 556.5,46.5 C 572.234,44.7807 583.734,50.7807 591,64.5C 596.61,94.8847 584.11,108.718 553.5,106C 544.095,102.986 537.928,96.819 535,87.5C 532.451,94.3583 527.617,96.8583 520.5,95C 514.975,92.0812 513.142,87.5812 515,81.5C 518.298,76.7795 522.798,75.2795 528.5,77C 531.057,77.6853 532.891,79.1853 534,81.5C 532.212,63.5188 539.712,51.8522 556.5,46.5 Z"/></g>
<g><path style="opacity:0.963" fill="#575757" d="M 375.5,21.5 C 388.582,21.0886 394.082,27.422 392,40.5C 391.3,44.0662 389.467,46.8995 386.5,49C 403.732,46.5643 411.566,54.0643 410,71.5C 405.616,83.2533 397.449,87.0866 385.5,83C 375.688,75.1721 373.854,65.6721 380,54.5C 381.543,52.6217 383.376,51.1217 385.5,50C 369.429,50.5695 363.929,43.0695 369,27.5C 371.063,25.2659 373.229,23.2659 375.5,21.5 Z"/></g>
<g><path style="opacity:0.9" fill="#575757" d="M 242.5,53.5 C 253.396,52.2357 257.23,56.9024 254,67.5C 248.517,72.9815 243.35,72.6482 238.5,66.5C 236.899,61.2312 238.232,56.8978 242.5,53.5 Z"/></g>
<g><path style="opacity:0.977" fill="#575757" d="M 272.5,61.5 C 298.655,60.821 310.488,73.4876 308,99.5C 305.456,109.738 299.289,116.905 289.5,121C 272.504,124.913 259.671,119.413 251,104.5C 245.531,83.4363 252.697,69.103 272.5,61.5 Z"/></g>
<g><path style="opacity:0.938" fill="#575757" d="M 605.5,68.5 C 618.582,68.0886 624.082,74.422 622,87.5C 618.223,95.4196 612.056,97.7529 603.5,94.5C 596.959,88.4615 595.793,81.4615 600,73.5C 602.276,72.2381 604.109,70.5714 605.5,68.5 Z"/></g>
<g><path style="opacity:0.9" fill="#585858" d="M 235.5,74.5 C 244.762,73.4227 248.928,77.4227 248,86.5C 245.103,91.1549 240.937,92.6549 235.5,91C 230.776,88.5647 229.276,84.7314 231,79.5C 232.707,77.9625 234.207,76.2959 235.5,74.5 Z"/></g>
<g><path style="opacity:0.951" fill="#575757" d="M 487.5,76.5 C 503.343,75.8361 509.51,83.1694 506,98.5C 501.088,106.39 494.255,108.557 485.5,105C 478.017,98.3858 476.517,90.5524 481,81.5C 482.965,79.4497 485.132,77.783 487.5,76.5 Z"/></g>
<g><path style="opacity:0.9" fill="#575757" d="M 414.5,87.5 C 425.396,86.2357 429.23,90.9024 426,101.5C 423.585,105.351 420.085,106.518 415.5,105C 407.9,99.7104 407.566,93.877 414.5,87.5 Z"/></g>
<g><path style="opacity:0.925" fill="#565656" d="M 591.5,94.5 C 601.78,92.3884 605.947,96.3884 604,106.5C 602.171,112.158 598.337,113.992 592.5,112C 586.254,106.464 585.921,100.63 591.5,94.5 Z"/></g>
<g><path style="opacity:0.978" fill="#575757" d="M 385.5,99.5 C 411.175,98.6729 423.008,111.006 421,136.5C 415.715,154.089 403.882,161.589 385.5,159C 374.377,156.636 366.877,150.136 363,139.5C 362.333,132.833 362.333,126.167 363,119.5C 367.139,108.973 374.639,102.306 385.5,99.5 Z"/></g>
<g><path style="opacity:0.953" fill="#575757" d="M 445.5,104.5 C 462.077,103.236 468.243,110.569 464,126.5C 459.745,133.54 453.578,136.04 445.5,134C 435.854,129.971 432.687,122.804 436,112.5C 438.161,108.495 441.328,105.829 445.5,104.5 Z"/></g>
<g><path style="opacity:0.977" fill="#575757" d="M 442.5,140.5 C 468.461,139.961 480.628,152.628 479,178.5C 473.173,196.124 461.006,203.624 442.5,201C 432.16,197.993 424.993,191.493 421,181.5C 417.173,161.813 424.339,148.147 442.5,140.5 Z"/></g>
<g><path style="opacity:0.91" fill="#585858" d="M 390.5,185.5 C 383.872,186.769 379.039,184.436 376,178.5C 374.112,171.412 375.945,165.578 381.5,161C 393.323,160.163 398.156,165.663 396,177.5C 394.384,180.426 392.551,183.093 390.5,185.5 Z"/></g>
<g><path style="opacity:0.981" fill="#575757" d="M 390.5,185.5 C 406.864,180.776 419.697,185.443 429,199.5C 433.962,213.415 431.795,225.915 422.5,237C 419.025,239.24 415.358,241.24 411.5,243C 394.244,246.616 381.744,240.782 374,225.5C 368.408,207.07 373.908,193.736 390.5,185.5 Z"/></g>
<g><path style="opacity:0.939" fill="#575757" d="M 464.5,203.5 C 475.115,202.972 478.948,207.972 476,218.5C 473.091,221.394 469.591,222.227 465.5,221C 460.438,218.606 458.772,214.772 460.5,209.5C 462.252,207.754 463.585,205.754 464.5,203.5 Z"/></g>
<g><path style="opacity:0.976" fill="#575757" d="M 446.5,224.5 C 474.288,223.767 486.122,237.101 482,264.5C 473.661,282.738 459.827,288.571 440.5,282C 437.237,279.973 434.07,277.806 431,275.5C 429,272.167 427,268.833 425,265.5C 422.269,253.003 424.769,241.837 432.5,232C 436.771,228.699 441.438,226.199 446.5,224.5 Z"/></g>
<g><path style="opacity:0.969" fill="#585858" d="M 393.5,253.5 C 409.957,251.469 418.623,258.635 419.5,275C 418.639,291.519 409.972,298.519 393.5,296C 380.588,290.329 376.088,280.495 380,266.5C 382.79,260.125 387.29,255.792 393.5,253.5 Z"/></g>
<g><path style="opacity:0.978" fill="#575757" d="M 445.5,288.5 C 464.16,285.411 477.327,292.411 485,309.5C 487.846,322.585 485.179,334.252 477,344.5C 467.062,352.471 455.896,354.637 443.5,351C 425.711,341.558 419.877,327.058 426,307.5C 429.871,298.342 436.371,292.009 445.5,288.5 Z"/></g>
<g><path style="opacity:0.94" fill="#575757" d="M 408.5,298.5 C 416.279,296.869 420.612,299.869 421.5,307.5C 421.197,315.996 416.864,319.163 408.5,317C 403.845,314.103 402.345,309.937 404,304.5C 404.599,301.746 406.099,299.746 408.5,298.5 Z"/></g>
<g><path style="opacity:0.967" fill="#575757" d="M 386.5,302.5 C 401.383,301.713 406.05,308.379 400.5,322.5C 399.354,323.145 398.354,323.978 397.5,325C 408.54,323.662 417.04,327.496 423,336.5C 428.44,354.639 421.94,365.306 403.5,368.5C 393.881,368.353 387.048,364.019 383,355.5C 378.988,342.706 382.821,333.206 394.5,327C 381.363,326.525 376.863,320.025 381,307.5C 383.191,306.167 385.024,304.5 386.5,302.5 Z"/></g>
<g><path style="opacity:0.911" fill="#575757" d="M 431.5,350.5 C 442.157,348.658 446.657,352.991 445,363.5C 442.232,369.172 437.732,371.006 431.5,369C 426.845,366.103 425.345,361.937 427,356.5C 427.804,353.854 429.304,351.854 431.5,350.5 Z"/></g>
<g><path style="opacity:0.935" fill="#585858" d="M 224.5,383.5 C 228.24,383.241 231.906,383.574 235.5,384.5C 236.297,389.151 236.464,393.818 236,398.5C 240.452,399.141 244.952,399.808 249.5,400.5C 248.593,403.421 248.26,406.421 248.5,409.5C 244.563,409.793 240.73,409.46 237,408.5C 235.861,412.658 235.361,416.991 235.5,421.5C 232.663,433.997 237.329,438.663 249.5,435.5C 249.784,438.777 249.451,441.943 248.5,445C 241.724,445.92 235.057,445.586 228.5,444C 226.951,442.786 225.785,441.286 225,439.5C 224.667,429.5 224.333,419.5 224,409.5C 222.301,408.594 220.467,408.261 218.5,408.5C 218.336,405.813 218.503,403.146 219,400.5C 220.699,399.594 222.533,399.261 224.5,399.5C 224.5,394.167 224.5,388.833 224.5,383.5 Z"/></g>
<g><path style="opacity:0.929" fill="#585858" d="M 388.5,383.5 C 392.24,383.241 395.906,383.574 399.5,384.5C 400.494,389.456 400.827,394.456 400.5,399.5C 404.833,399.5 409.167,399.5 413.5,399.5C 413.5,402.833 413.5,406.167 413.5,409.5C 409.429,409.766 405.429,409.433 401.5,408.5C 400.808,409.025 400.308,409.692 400,410.5C 399.333,417.833 399.333,425.167 400,432.5C 400.874,434.776 402.541,436.11 405,436.5C 408.105,435.633 411.272,435.299 414.5,435.5C 413.793,438.786 413.46,442.119 413.5,445.5C 407.158,445.666 400.825,445.5 394.5,445C 392.714,444.215 391.214,443.049 390,441.5C 388.927,436.917 388.427,432.251 388.5,427.5C 388.85,421.811 389.017,416.144 389,410.5C 387.56,408.954 385.727,408.121 383.5,408C 382.167,405.333 382.167,402.667 383.5,400C 385.134,399.506 386.801,399.34 388.5,399.5C 388.5,394.167 388.5,388.833 388.5,383.5 Z"/></g>
<g><path style="opacity:0.935" fill="#585858" d="M 598.5,383.5 C 602.24,383.241 605.906,383.574 609.5,384.5C 610.297,389.151 610.464,393.818 610,398.5C 614.452,399.141 618.952,399.808 623.5,400.5C 622.593,403.421 622.26,406.421 622.5,409.5C 618.563,409.793 614.73,409.46 611,408.5C 609.861,412.658 609.361,416.991 609.5,421.5C 606.663,433.997 611.329,438.663 623.5,435.5C 623.784,438.777 623.451,441.943 622.5,445C 615.724,445.92 609.057,445.586 602.5,444C 600.951,442.786 599.785,441.286 599,439.5C 598.667,429.5 598.333,419.5 598,409.5C 596.301,408.594 594.467,408.261 592.5,408.5C 592.336,405.813 592.503,403.146 593,400.5C 594.699,399.594 596.533,399.261 598.5,399.5C 598.5,394.167 598.5,388.833 598.5,383.5 Z"/></g>
<g><path style="opacity:0.916" fill="#585858" d="M 256.5,398.5 C 259.5,398.5 262.5,398.5 265.5,398.5C 265.215,400.288 265.548,401.955 266.5,403.5C 271.605,400.016 277.272,398.683 283.5,399.5C 283.354,403.519 283.021,407.519 282.5,411.5C 278.009,409.957 273.676,410.29 269.5,412.5C 268.808,413.025 268.308,413.692 268,414.5C 267.5,424.494 267.334,434.494 267.5,444.5C 263.5,444.5 259.5,444.5 255.5,444.5C 255.383,436.981 255.717,429.481 256.5,422C 256.187,414.712 255.187,407.545 253.5,400.5C 254.602,399.824 255.602,399.158 256.5,398.5 Z"/></g>
<g><path style="opacity:0.923" fill="#585858" d="M 300.5,398.5 C 316.717,396.389 326.05,403.389 328.5,419.5C 328.24,421.187 327.573,422.687 326.5,424C 316.592,425.888 306.592,427.388 296.5,428.5C 299.082,433.135 303.082,435.802 308.5,436.5C 314.267,435.302 319.601,433.469 324.5,431C 326.377,433.231 327.21,435.731 327,438.5C 322.178,443.775 316.178,446.109 309,445.5C 293.599,445.601 285.433,437.934 284.5,422.5C 284.879,411.045 290.213,403.045 300.5,398.5 Z M 305.5,407.5 C 311.071,407.944 314.737,410.777 316.5,416C 309.979,418.094 303.313,419.094 296.5,419C 296.513,413.121 299.513,409.288 305.5,407.5 Z"/></g>
<g><path style="opacity:0.928" fill="#585858" d="M 346.5,398.5 C 351.93,398.161 357.264,398.661 362.5,400C 365.333,401.5 367.5,403.667 369,406.5C 369.236,404.236 369.736,402.069 370.5,400C 373.817,399.502 377.15,399.335 380.5,399.5C 378.19,414.435 377.857,429.435 379.5,444.5C 375.833,444.5 372.167,444.5 368.5,444.5C 368.769,442.571 368.269,440.905 367,439.5C 360.136,445.621 352.302,447.121 343.5,444C 332.089,435.895 328.589,425.062 333,411.5C 336.076,405.589 340.576,401.255 346.5,398.5 Z M 353.5,407.5 C 366.352,410.537 370.185,418.203 365,430.5C 358.949,437.866 352.615,438.199 346,431.5C 340.177,420.772 342.677,412.772 353.5,407.5 Z"/></g>
<g><path style="opacity:0.923" fill="#585858" d="M 513.5,398.5 C 531.946,396.782 540.779,405.115 540,423.5C 539.25,424.126 538.416,424.626 537.5,425C 528.203,426.296 518.87,427.13 509.5,427.5C 510.143,430.988 512.143,433.488 515.5,435C 523.007,436.917 529.841,435.417 536,430.5C 540.843,433.615 541.343,437.115 537.5,441C 528.938,445.705 519.938,446.705 510.5,444C 498.374,436.727 494.541,426.227 499,412.5C 501.871,405.675 506.704,401.008 513.5,398.5 Z M 518.5,407.5 C 524.565,407.736 527.732,410.736 528,416.5C 521.95,418.209 515.783,419.043 509.5,419C 508.724,417.23 508.89,415.397 510,413.5C 512.322,410.605 515.155,408.605 518.5,407.5 Z"/></g>
<g><path style="opacity:0.937" fill="#585858" d="M 568.5,398.5 C 574.105,397.908 579.439,398.741 584.5,401C 585.701,401.903 586.535,403.069 587,404.5C 588.444,417.76 588.944,431.093 588.5,444.5C 584.5,444.5 580.5,444.5 576.5,444.5C 577.454,434.85 577.62,425.183 577,415.5C 576.75,410.749 574.25,408.083 569.5,407.5C 565.021,408.498 561.521,410.831 559,414.5C 558.5,424.494 558.334,434.494 558.5,444.5C 554.5,444.5 550.5,444.5 546.5,444.5C 546.397,437.314 546.73,430.147 547.5,423C 547.189,416.043 546.189,409.209 544.5,402.5C 544.709,401.914 545.043,401.414 545.5,401C 549.44,399.985 553.44,399.485 557.5,399.5C 557.338,401.527 557.505,403.527 558,405.5C 561.308,402.771 564.808,400.438 568.5,398.5 Z"/></g>
<g><path style="opacity:0.95" fill="#585858" d="M 420.5,399.5 C 423.833,399.5 427.167,399.5 430.5,399.5C 430.148,402.073 430.648,404.406 432,406.5C 439.419,399.06 447.919,397.56 457.5,402C 458.667,403.833 459.833,405.667 461,407.5C 467.962,399.537 476.462,397.37 486.5,401C 488.617,402.731 490.117,404.898 491,407.5C 491.5,419.829 491.667,432.162 491.5,444.5C 487.563,444.793 483.73,444.46 480,443.5C 480.582,434.22 480.582,424.887 480,415.5C 479.619,410.954 477.119,408.62 472.5,408.5C 467.694,409.475 464.194,412.142 462,416.5C 461.39,425.849 461.556,435.183 462.5,444.5C 458.5,444.5 454.5,444.5 450.5,444.5C 450.666,434.494 450.5,424.494 450,414.5C 449.232,410.735 446.898,408.735 443,408.5C 438.292,409.345 434.625,411.679 432,415.5C 431.5,425.161 431.334,434.828 431.5,444.5C 427.833,444.5 424.167,444.5 420.5,444.5C 420.967,430.598 420.3,416.765 418.5,403C 418.862,401.566 419.528,400.399 420.5,399.5 Z"/></g>
<g><path style="opacity:0.948" fill="#2e8e9c" d="M 199.5,471.5 C 202.224,472.395 204.891,472.728 207.5,472.5C 213.741,486.976 219.408,501.643 224.5,516.5C 221.482,516.665 218.482,516.498 215.5,516C 214.544,513.123 213.211,510.456 211.5,508C 205.804,507.17 200.137,507.337 194.5,508.5C 193.27,510.933 192.27,513.433 191.5,516C 188.518,516.498 185.518,516.665 182.5,516.5C 187.329,501.176 192.996,486.176 199.5,471.5 Z M 202.5,483.5 C 205.198,488.566 207.532,493.9 209.5,499.5C 205.313,501.98 200.98,502.147 196.5,500C 198.998,494.673 200.998,489.173 202.5,483.5 Z"/></g>
<g><path style="opacity:0.939" fill="#2e8e9d" d="M 424.5,471.5 C 432.988,470.162 440.488,472.162 447,477.5C 451.126,486.158 449.626,493.658 442.5,500C 445.257,505.344 447.59,510.844 449.5,516.5C 446.167,516.5 442.833,516.5 439.5,516.5C 438.131,512.088 436.464,507.754 434.5,503.5C 433.975,502.808 433.308,502.308 432.5,502C 429.854,501.503 427.187,501.336 424.5,501.5C 424.5,506.5 424.5,511.5 424.5,516.5C 421.833,516.5 419.167,516.5 416.5,516.5C 416.5,501.833 416.5,487.167 416.5,472.5C 419.385,472.806 422.052,472.473 424.5,471.5 Z M 426.5,478.5 C 430.702,478.384 434.702,479.217 438.5,481C 443.086,489.613 440.586,494.446 431,495.5C 428.813,495.212 426.646,494.878 424.5,494.5C 423.963,488.865 424.63,483.532 426.5,478.5 Z"/></g>
<g><path style="opacity:0.932" fill="#2e8e9d" d="M 594.5,471.5 C 599.93,471.161 605.264,471.661 610.5,473C 617.456,475.983 618.123,479.817 612.5,484.5C 609.233,481.396 605.4,479.396 601,478.5C 595.094,479.407 591.427,482.741 590,488.5C 588.307,495.844 589.807,502.344 594.5,508C 601.193,511.174 607.193,510.008 612.5,504.5C 614.692,505.859 616.359,507.692 617.5,510C 610.209,517.547 601.542,519.547 591.5,516C 584.013,510.862 580.347,503.695 580.5,494.5C 580.369,483.738 585.036,476.072 594.5,471.5 Z"/></g>
<g><path style="opacity:0.952" fill="#2e8e9c" d="M 244.5,472.5 C 252.174,472.334 259.841,472.5 267.5,473C 277.997,476.115 282.997,483.282 282.5,494.5C 282.753,503.16 279.419,509.993 272.5,515C 263.248,516.417 253.915,516.917 244.5,516.5C 244.5,501.833 244.5,487.167 244.5,472.5 Z M 254.5,478.5 C 269.047,477.545 275.547,484.211 274,498.5C 270.842,508.831 264.009,512.498 253.5,509.5C 253.167,504.5 252.833,499.5 252.5,494.5C 252.551,488.921 253.218,483.588 254.5,478.5 Z"/></g>
<g><path style="opacity:0.947" fill="#2e8e9d" d="M 303.5,472.5 C 306.5,472.5 309.5,472.5 312.5,472.5C 312.365,478.181 312.032,483.848 311.5,489.5C 318.847,490.761 326.18,490.761 333.5,489.5C 334.495,483.872 334.829,478.206 334.5,472.5C 337.5,472.5 340.5,472.5 343.5,472.5C 342.167,487.167 342.167,501.833 343.5,516.5C 340.5,516.5 337.5,516.5 334.5,516.5C 334.83,510.132 334.496,503.798 333.5,497.5C 326.833,496.167 320.167,496.167 313.5,497.5C 312.504,503.798 312.17,510.132 312.5,516.5C 309.5,516.5 306.5,516.5 303.5,516.5C 303.5,501.833 303.5,487.167 303.5,472.5 Z"/></g>
<g><path style="opacity:0.94" fill="#2e8e9d" d="M 365.5,472.5 C 374.833,472.5 384.167,472.5 393.5,472.5C 393.674,474.861 394.007,477.194 394.5,479.5C 388.131,479.425 381.798,479.258 375.5,479C 374.28,480.525 373.613,482.359 373.5,484.5C 373.54,486.429 373.873,488.262 374.5,490C 380.812,489.892 387.145,489.725 393.5,489.5C 393.708,491.92 393.374,494.253 392.5,496.5C 386.575,496.603 380.575,496.77 374.5,497C 373.374,500.744 373.207,504.577 374,508.5C 374.75,509.126 375.584,509.626 376.5,510C 382.846,509.555 389.18,509.721 395.5,510.5C 394.626,512.747 394.292,515.08 394.5,517.5C 384.861,516.64 375.194,516.307 365.5,516.5C 365.5,501.833 365.5,487.167 365.5,472.5 Z"/></g>
<g><path style="opacity:0.949" fill="#2e8e9d" d="M 470.5,472.5 C 479.833,472.5 489.167,472.5 498.5,472.5C 498.5,474.833 498.5,477.167 498.5,479.5C 492.085,479.25 485.751,479.25 479.5,479.5C 478.511,483.107 478.177,486.774 478.5,490.5C 484.815,489.89 491.149,489.557 497.5,489.5C 497.5,492.167 497.5,494.833 497.5,497.5C 491.522,496.591 485.522,496.425 479.5,497C 478.866,499.075 478.532,501.241 478.5,503.5C 478.59,505.964 479.257,508.13 480.5,510C 486.812,509.892 493.145,509.725 499.5,509.5C 499.425,512.206 499.092,514.873 498.5,517.5C 489.199,516.613 479.866,516.279 470.5,516.5C 470.5,501.833 470.5,487.167 470.5,472.5 Z"/></g>
<g><path style="opacity:0.933" fill="#2e8e9d" d="M 520.5,472.5 C 523.572,472.183 526.572,472.516 529.5,473.5C 536.667,483.167 543.833,492.833 551,502.5C 551.666,492.481 551.499,482.481 550.5,472.5C 553.5,472.5 556.5,472.5 559.5,472.5C 559.5,487.167 559.5,501.833 559.5,516.5C 556.428,516.817 553.428,516.484 550.5,515.5C 543.333,505.833 536.167,496.167 529,486.5C 528.5,496.494 528.334,506.494 528.5,516.5C 525.833,516.5 523.167,516.5 520.5,516.5C 520.5,501.833 520.5,487.167 520.5,472.5 Z"/></g>
<g><path style="opacity:0.942" fill="#2e8e9d" d="M 636.5,472.5 C 645.833,472.5 655.167,472.5 664.5,472.5C 664.5,474.833 664.5,477.167 664.5,479.5C 659.124,479.735 653.791,479.402 648.5,478.5C 647.446,478.68 646.446,479.013 645.5,479.5C 644.209,483.045 644.209,486.545 645.5,490C 651.812,489.892 658.145,489.725 664.5,489.5C 664.167,492.167 663.833,494.833 663.5,497.5C 657.522,496.591 651.522,496.425 645.5,497C 644.866,499.075 644.532,501.241 644.5,503.5C 644.59,505.964 645.257,508.13 646.5,510C 652.818,509.987 659.151,509.821 665.5,509.5C 665.663,511.857 665.497,514.19 665,516.5C 664.275,517.059 663.442,517.392 662.5,517.5C 653.868,516.557 645.202,516.224 636.5,516.5C 636.5,501.833 636.5,487.167 636.5,472.5 Z"/></g>
</svg>
