<svg width="44" height="44" viewBox="0 0 44 44" fill="none" xmlns="http://www.w3.org/2000/svg">
<circle cx="22" cy="22" r="21.5" stroke="#999999"/>
<path d="M22.1161 12.1958C22.2416 12.0704 22.4118 12 22.5893 12C22.7667 12 22.9369 12.0704 23.0625 12.1958C23.5295 12.6628 25.2893 14.5298 26.9375 16.9423C28.5652 19.3253 30.1786 22.3726 30.1786 25.1691C30.1786 27.8842 29.3598 29.9673 27.9554 31.3717C26.5554 32.7735 24.642 33.428 22.5893 33.428C20.5375 33.428 18.6241 32.7735 17.2232 31.3717C15.8187 29.9673 15 27.8833 15 25.1691C15 22.3726 16.6134 19.3253 18.2411 16.9423C19.8893 14.5298 21.6491 12.6628 22.1161 12.1958Z" fill="#999999"/>
</svg>
