<svg width="58" height="63" viewBox="0 0 58 63" fill="none" xmlns="http://www.w3.org/2000/svg">
<path d="M38.6667 5.25H19.3334C11.3366 5.25 4.83337 12.3139 4.83337 21V55.125C4.83337 55.8212 5.08799 56.4889 5.5412 56.9812C5.99441 57.4734 6.6091 57.75 7.25004 57.75H38.6667C46.6635 57.75 53.1667 50.6861 53.1667 42V21C53.1667 12.3139 46.6635 5.25 38.6667 5.25ZM48.3334 42C48.3334 47.7907 43.9979 52.5 38.6667 52.5H9.66671V21C9.66671 15.2092 14.0022 10.5 19.3334 10.5H38.6667C43.9979 10.5 48.3334 15.2092 48.3334 21V42Z" fill="#999999"/>
<path d="M26.5834 15.75H31.4167V36.75H26.5834V15.75ZM26.5834 42H31.4167V47.25H26.5834V42Z" fill="#999999"/>
</svg>
