<svg width="44" height="44" viewBox="0 0 44 44" fill="none" xmlns="http://www.w3.org/2000/svg">
<circle cx="22" cy="22" r="22" fill="white"/>
<circle cx="22" cy="22" r="21.5" stroke="#999999"/>
<path d="M30.5714 12C30.9213 12 31.2591 12.1 31.5205 12.2808C31.782 12.4617 31.9491 12.7109 31.99 12.9812L32 13.1112V30.8901C31.9996 31.1733 31.8602 31.4457 31.6102 31.6516C31.3603 31.8576 31.0186 31.9815 30.6551 31.9981C30.2917 32.0147 29.9337 31.9227 29.6545 31.7409C29.3753 31.5591 29.1959 31.3013 29.1529 31.0201L29.1429 30.8901V25.3342H27.7143C27.3644 25.3341 27.0267 25.2342 26.7652 25.0533C26.5037 24.8725 26.3367 24.6233 26.2957 24.353L26.2857 24.223V17.5559C26.2857 15.1002 28.4286 12 30.5714 12ZM22 12C22.3499 12 22.6876 12.1 22.9491 12.2808C23.2106 12.4617 23.3776 12.7109 23.4186 12.9812L23.4286 13.1112V18.6671C23.4284 19.6525 23.0074 20.6101 22.2317 21.3892C21.4559 22.1684 20.3695 22.725 19.1429 22.9718V30.8901C19.1425 31.1733 19.003 31.4457 18.7531 31.6516C18.5031 31.8576 18.1615 31.9815 17.798 31.9981C17.4345 32.0147 17.0766 31.9227 16.7974 31.7409C16.5182 31.5591 16.3387 31.3013 16.2957 31.0201L16.2857 30.8901V22.9718C15.1078 22.7349 14.0577 22.212 13.2882 21.4789C12.5187 20.7459 12.07 19.8411 12.0071 18.896L12 18.6671V13.1112C12.0004 12.828 12.1398 12.5556 12.3898 12.3496C12.6397 12.1437 12.9814 12.0197 13.3448 12.0031C13.7083 11.9865 14.0663 12.0785 14.3455 12.2603C14.6247 12.4421 14.8041 12.6999 14.8471 12.9812L14.8571 13.1112V18.6671C14.8572 19.0572 14.9892 19.4404 15.2399 19.7782C15.4907 20.1161 15.8514 20.3966 16.2857 20.5916V13.1112C16.2861 12.828 16.4255 12.5556 16.6755 12.3496C16.9255 12.1437 17.2671 12.0197 17.6306 12.0031C17.9941 11.9865 18.352 12.0785 18.6312 12.2603C18.9104 12.4421 19.0899 12.6999 19.1329 12.9812L19.1429 13.1112L19.1443 20.5916C19.5429 20.4124 19.88 20.1609 20.1268 19.8585C20.3735 19.5561 20.5226 19.2118 20.5614 18.8549L20.5714 18.6671V13.1112C20.5714 12.8165 20.7219 12.5338 20.9898 12.3255C21.2578 12.1171 21.6211 12 22 12Z" fill="#999999"/>
</svg>
