<svg width="22" height="22" viewBox="0 0 22 22" fill="none" xmlns="http://www.w3.org/2000/svg">
<g clip-path="url(#clip0_217_1178)">
<path d="M11 0C4.95 0 0 4.95 0 11C0 17.05 4.95 22 11 22C14.025 22 16.83 20.8175 18.81 18.81L16.83 16.83C15.345 18.315 13.2825 19.25 10.9725 19.25C6.4075 19.25 2.7225 15.565 2.7225 11C2.7225 6.435 6.4075 2.75 10.9725 2.75C13.255 2.75 15.235 3.74 16.72 5.2525L13.7225 8.25H21.9725V0L18.7 3.2725C16.72 1.2925 13.9975 0 10.9725 0H11Z" fill="white"/>
</g>
<defs>
<clipPath id="clip0_217_1178">
<rect width="22" height="22" fill="white"/>
</clipPath>
</defs>
</svg>
