<svg width="58" height="54" viewBox="0 0 58 54" fill="none" xmlns="http://www.w3.org/2000/svg">
<path d="M29 0C12.9838 0 0 12.0884 0 27C0 41.9117 12.9838 54 29 54C45.0162 54 58 41.9117 58 27C58 12.0884 45.0162 0 29 0ZM29 5.8667C41.5362 5.8667 51.6952 15.3313 51.6952 27C51.6952 38.6687 41.5362 48.13 29 48.13C16.4638 48.13 6.30479 38.6687 6.30479 27C6.30484 15.3313 16.4638 5.8667 29 5.8667ZM40.1122 14.179L23.3041 29.8312L17.8524 24.7555L12.5034 29.7323L17.9551 34.808L23.3394 39.821L28.685 34.8409L45.4966 19.192L40.1122 14.179Z" fill="#67757F"/>
</svg>
