<svg width="25" height="25" viewBox="0 0 25 25" fill="none" xmlns="http://www.w3.org/2000/svg">
<path d="M21.1375 22.6115L12.0687 13.5417H7.29162V11.4583H9.98537L7.90203 9.37501H7.29162C6.46282 9.37501 5.66796 9.70425 5.08191 10.2903C4.49586 10.8763 4.16662 11.6712 4.16662 12.5C4.16662 13.3288 4.49586 14.1237 5.08191 14.7097C5.66796 15.2958 6.46282 15.625 7.29162 15.625H10.4166V17.7083H7.29162C6.02366 17.7094 4.79886 17.2479 3.84691 16.4103C2.89496 15.5727 2.28124 14.4167 2.12083 13.1589C1.96043 11.9011 2.26437 10.628 2.97565 9.57834C3.68692 8.52867 4.75668 7.77451 5.98432 7.4573L2.38745 3.86147L3.86141 2.38855L22.6114 21.1385L21.1385 22.6104V22.6115H21.1375ZM20.975 16.5552L19.4875 15.0688C20.0348 14.6895 20.4467 14.1454 20.6631 13.5157C20.8796 12.8859 20.8892 12.2035 20.6906 11.568C20.492 10.9324 20.0955 10.3769 19.5591 9.98239C19.0226 9.58791 18.3742 9.37511 17.7083 9.37501H14.5833V7.29167H17.7083C18.7859 7.2918 19.8369 7.62617 20.7165 8.24868C21.596 8.87119 22.2609 9.7512 22.6194 10.7674C22.9778 11.7836 23.0123 12.886 22.7179 13.9226C22.4236 14.9592 21.815 15.879 20.976 16.5552H20.975Z" fill="#9D9CB5"/>
</svg>
