<svg width="58" height="54" viewBox="0 0 58 54" fill="none" xmlns="http://www.w3.org/2000/svg">
<path d="M56.5819 48.546L30.7516 3.63963C30.5744 3.35306 30.3191 3.11504 30.0116 2.94954C29.7041 2.78404 29.3552 2.6969 29 2.6969C28.6448 2.6969 28.2959 2.78404 27.9884 2.94954C27.6809 3.11504 27.4257 3.35306 27.2484 3.63963L1.42102 48.546C1.2487 48.8259 1.15925 49.1433 1.1618 49.4659C1.16434 49.7884 1.2588 50.1046 1.43552 50.382C1.79802 50.9517 2.45632 51.3 3.16972 51.3H54.8303C55.1801 51.3005 55.5241 51.2161 55.8282 51.0552C56.1323 50.8942 56.3861 50.6622 56.5645 50.382C56.7411 50.1046 56.8357 49.7887 56.8388 49.4662C56.8418 49.1438 56.7532 48.8263 56.5819 48.546V48.546ZM31.9 45.9H26.1V40.5H31.9V45.9ZM31.9 36.45H26.1V18.9H31.9V36.45Z" fill="#67757F"/>
</svg>
